<svg xmlns="http://www.w3.org/2000/svg" xmlns:xlink="http://www.w3.org/1999/xlink" xmlns:inkscape="http://www.inkscape.org/namespaces/inkscape" version="1.1" width="784.4275" height="279.02876" viewBox="0 0 784.4275 279.02876">
<defs>
<clipPath id="clip_0">
<path transform="matrix(1,0,0,-1,0,279.02876)" d="M50.1375 37.54375H777.22756V256.70378H50.1375Z"/>
</clipPath>
<clipPath id="clip_1">
<path transform="matrix(1,0,0,-1,0,279.02876)" d="M50.1375 37.54375H777.22756V256.70378H50.1375Z"/>
</clipPath>
<clipPath id="clip_2">
<path transform="matrix(1,0,0,-1,0,279.02876)" d="M50.1375 37.54375H777.22756V256.70378H50.1375Z"/>
</clipPath>
<clipPath id="clip_3">
<path transform="matrix(1,0,0,-1,0,279.02876)" d="M50.1375 37.54375H777.22756V256.70378H50.1375Z"/>
</clipPath>
<clipPath id="clip_4">
<path transform="matrix(1,0,0,-1,0,279.02876)" d="M50.1375 37.54375H777.22756V256.70378H50.1375Z"/>
</clipPath>
<clipPath id="clip_5">
<path transform="matrix(1,0,0,-1,0,279.02876)" d="M50.1375 37.54375H777.22756V256.70378H50.1375Z"/>
</clipPath>
<clipPath id="clip_6">
<path transform="matrix(1,0,0,-1,0,279.02876)" d="M50.1375 37.54375H777.22756V256.70378H50.1375Z"/>
</clipPath>
<clipPath id="clip_7">
<path transform="matrix(1,0,0,-1,0,279.02876)" d="M50.1375 37.54375H777.22756V256.70378H50.1375Z"/>
</clipPath>
<clipPath id="clip_8">
<path transform="matrix(1,0,0,-1,0,279.02876)" d="M50.1375 37.54375H777.22756V256.70378H50.1375Z"/>
</clipPath>
<clipPath id="clip_9">
<path transform="matrix(1,0,0,-1,0,279.02876)" d="M50.1375 37.54375H777.22756V256.70378H50.1375Z"/>
</clipPath>
<clipPath id="clip_10">
<path transform="matrix(1,0,0,-1,0,279.02876)" d="M50.1375 37.54375H777.22756V256.70378H50.1375Z"/>
</clipPath>
<clipPath id="clip_11">
<path transform="matrix(1,0,0,-1,0,279.02876)" d="M50.1375 37.54375H777.22756V256.70378H50.1375Z"/>
</clipPath>
<clipPath id="clip_12">
<path transform="matrix(1,0,0,-1,0,279.02876)" d="M50.1375 37.54375H777.22756V256.70378H50.1375Z"/>
</clipPath>
<clipPath id="clip_13">
<path transform="matrix(1,0,0,-1,0,279.02876)" d="M50.1375 37.54375H777.22756V256.70378H50.1375Z"/>
</clipPath>
<clipPath id="clip_14">
<path transform="matrix(1,0,0,-1,0,279.02876)" d="M50.1375 37.54375H777.22756V256.70378H50.1375Z"/>
</clipPath>
<clipPath id="clip_15">
<path transform="matrix(1,0,0,-1,0,279.02876)" d="M50.1375 37.54375H777.22756V256.70378H50.1375Z"/>
</clipPath>
<clipPath id="clip_16">
<path transform="matrix(1,0,0,-1,0,279.02876)" d="M50.1375 37.54375H777.22756V256.70378H50.1375Z"/>
</clipPath>
<clipPath id="clip_17">
<path transform="matrix(1,0,0,-1,0,279.02876)" d="M50.1375 37.54375H777.22756V256.70378H50.1375Z"/>
</clipPath>
<clipPath id="clip_18">
<path transform="matrix(1,0,0,-1,0,279.02876)" d="M50.1375 37.54375H777.22756V256.70378H50.1375Z"/>
</clipPath>
<clipPath id="clip_19">
<path transform="matrix(1,0,0,-1,0,279.02876)" d="M50.1375 37.54375H777.22756V256.70378H50.1375Z"/>
</clipPath>
<clipPath id="clip_20">
<path transform="matrix(1,0,0,-1,0,279.02876)" d="M50.1375 37.54375H777.22756V256.70378H50.1375Z"/>
</clipPath>
<clipPath id="clip_21">
<path transform="matrix(.01,0,0,-.01,718.0129,256.07875)" d="M-1021-463H1794V1233H-1021Z"/>
</clipPath>
<clipPath id="clip_22">
<path transform="matrix(.01,0,0,-.01,726.3918,256.07875)" d="M-1021-463H1794V1233H-1021Z"/>
</clipPath>
<clipPath id="clip_23">
<path transform="matrix(.01,0,0,-.01,335.0575,269.7506)" d="M-1021-463H1794V1233H-1021Z"/>
</clipPath>
<clipPath id="clip_24">
<path transform="matrix(.01,0,0,-.01,425.72645,269.7506)" d="M-1021-463H1794V1233H-1021Z"/>
</clipPath>
<clipPath id="clip_25">
<path transform="matrix(1,0,0,-1,0,279.02876)" d="M50.1375 37.54375H777.22756V256.70378H50.1375Z"/>
</clipPath>
<clipPath id="clip_26">
<path transform="matrix(1,0,0,-1,0,279.02876)" d="M50.1375 37.54375H777.22756V256.70378H50.1375Z"/>
</clipPath>
<clipPath id="clip_27">
<path transform="matrix(1,0,0,-1,0,279.02876)" d="M50.1375 37.54375H777.22756V256.70378H50.1375Z"/>
</clipPath>
<clipPath id="clip_28">
<path transform="matrix(1,0,0,-1,0,279.02876)" d="M50.1375 37.54375H777.22756V256.70378H50.1375Z"/>
</clipPath>
<clipPath id="clip_29">
<path transform="matrix(1,0,0,-1,0,279.02876)" d="M50.1375 37.54375H777.22756V256.70378H50.1375Z"/>
</clipPath>
<clipPath id="clip_30">
<path transform="matrix(1,0,0,-1,0,279.02876)" d="M50.1375 37.54375H777.22756V256.70378H50.1375Z"/>
</clipPath>
<clipPath id="clip_31">
<path transform="matrix(1,0,0,-1,0,279.02876)" d="M50.1375 37.54375H777.22756V256.70378H50.1375Z"/>
</clipPath>
<clipPath id="clip_32">
<path transform="matrix(1,0,0,-1,0,279.02876)" d="M50.1375 37.54375H777.22756V256.70378H50.1375Z"/>
</clipPath>
<clipPath id="clip_33">
<path transform="matrix(1,0,0,-1,0,279.02876)" d="M50.1375 37.54375H777.22756V256.70378H50.1375Z"/>
</clipPath>
<clipPath id="clip_34">
<path transform="matrix(.012,0,0,-.012,243.40125,16.325013)" d="M-1021-463H1794V1233H-1021Z"/>
</clipPath>
<clipPath id="clip_35">
<path transform="matrix(.012,0,0,-.012,271.7489,16.325013)" d="M-1021-463H1794V1233H-1021Z"/>
</clipPath>
<clipPath id="clip_36">
<path transform="matrix(.012,0,0,-.012,402.3192,16.325013)" d="M-1021-463H1794V1233H-1021Z"/>
</clipPath>
</defs>
<path transform="matrix(1,0,0,-1,0,279.02876)" d="M0 0H784.4275V279.02876H0Z" fill="#ffffff"/>
<path transform="matrix(1,0,0,-1,0,279.02876)" d="M50.1375 37.54375H777.2275V256.70375H50.1375Z" fill="#ffffff"/>
<g clip-path="url(#clip_0)">
<path transform="matrix(1,0,0,-1,0,279.02876)" d="M148.3093 37.54375H174.3582V196.167H148.3093Z" fill="#4682b4"/>
<path transform="matrix(1,0,0,-1,0,279.02876)" stroke-width="1" stroke-linecap="butt" stroke-miterlimit="10" stroke-linejoin="miter" fill="none" stroke="#000000" d="M148.3093 37.54375H174.3582V196.167H148.3093Z"/>
</g>
<g clip-path="url(#clip_1)">
<path transform="matrix(1,0,0,-1,0,279.02876)" d="M180.87044 37.54375H206.91933V246.26757H180.87044Z" fill="#4682b4"/>
<path transform="matrix(1,0,0,-1,0,279.02876)" stroke-width="1" stroke-linecap="butt" stroke-miterlimit="10" stroke-linejoin="miter" fill="none" stroke="#000000" d="M180.87044 37.54375H206.91933V246.26757H180.87044Z"/>
</g>
<g clip-path="url(#clip_2)">
<path transform="matrix(1,0,0,-1,0,279.02876)" d="M213.43157 37.54375H239.48047V241.90509H213.43157Z" fill="#4682b4"/>
<path transform="matrix(1,0,0,-1,0,279.02876)" stroke-width="1" stroke-linecap="butt" stroke-miterlimit="10" stroke-linejoin="miter" fill="none" stroke="#000000" d="M213.43157 37.54375H239.48047V241.90509H213.43157Z"/>
</g>
<g clip-path="url(#clip_3)">
<path transform="matrix(1,0,0,-1,0,279.02876)" d="M245.99269 37.54375H272.0416V208.77362H245.99269Z" fill="#4682b4"/>
<path transform="matrix(1,0,0,-1,0,279.02876)" stroke-width="1" stroke-linecap="butt" stroke-miterlimit="10" stroke-linejoin="miter" fill="none" stroke="#000000" d="M245.99269 37.54375H272.0416V208.77362H245.99269Z"/>
</g>
<g clip-path="url(#clip_4)">
<path transform="matrix(1,0,0,-1,0,279.02876)" d="M278.5538 37.54375H304.60273V166.79137H278.5538Z" fill="#4682b4"/>
<path transform="matrix(1,0,0,-1,0,279.02876)" stroke-width="1" stroke-linecap="butt" stroke-miterlimit="10" stroke-linejoin="miter" fill="none" stroke="#000000" d="M278.5538 37.54375H304.60273V166.79137H278.5538Z"/>
</g>
<g clip-path="url(#clip_5)">
<path transform="matrix(1,0,0,-1,0,279.02876)" d="M311.11497 37.54375H337.16386V130.50743H311.11497Z" fill="#4682b4"/>
<path transform="matrix(1,0,0,-1,0,279.02876)" stroke-width="1" stroke-linecap="butt" stroke-miterlimit="10" stroke-linejoin="miter" fill="none" stroke="#000000" d="M311.11497 37.54375H337.16386V130.50743H311.11497Z"/>
</g>
<g clip-path="url(#clip_6)">
<path transform="matrix(1,0,0,-1,0,279.02876)" d="M343.6761 37.54375H369.72499V102.738689H343.6761Z" fill="#4682b4"/>
<path transform="matrix(1,0,0,-1,0,279.02876)" stroke-width="1" stroke-linecap="butt" stroke-miterlimit="10" stroke-linejoin="miter" fill="none" stroke="#000000" d="M343.6761 37.54375H369.72499V102.738689H343.6761Z"/>
</g>
<g clip-path="url(#clip_7)">
<path transform="matrix(1,0,0,-1,0,279.02876)" d="M83.18704 37.54375H109.23595V48.937135H83.18704Z" fill="#dc143c"/>
<path transform="matrix(1,0,0,-1,0,279.02876)" stroke-width="1" stroke-linecap="butt" stroke-miterlimit="10" stroke-linejoin="miter" fill="none" stroke="#000000" d="M83.18704 37.54375H109.23595V48.937135H83.18704Z"/>
</g>
<g clip-path="url(#clip_8)">
<path transform="matrix(1,0,0,-1,0,279.02876)" d="M115.74818 37.54375H141.79708V107.55933H115.74818Z" fill="#dc143c"/>
<path transform="matrix(1,0,0,-1,0,279.02876)" stroke-width="1" stroke-linecap="butt" stroke-miterlimit="10" stroke-linejoin="miter" fill="none" stroke="#000000" d="M115.74818 37.54375H141.79708V107.55933H115.74818Z"/>
</g>
<g clip-path="url(#clip_9)">
<path transform="matrix(1,0,0,-1,0,279.02876)" d="M376.2372 37.54375H402.2861V81.962139H376.2372Z" fill="#dc143c"/>
<path transform="matrix(1,0,0,-1,0,279.02876)" stroke-width="1" stroke-linecap="butt" stroke-miterlimit="10" stroke-linejoin="miter" fill="none" stroke="#000000" d="M376.2372 37.54375H402.2861V81.962139H376.2372Z"/>
</g>
<g clip-path="url(#clip_10)">
<path transform="matrix(1,0,0,-1,0,279.02876)" d="M408.79835 37.54375H434.84724V68.506908H408.79835Z" fill="#dc143c"/>
<path transform="matrix(1,0,0,-1,0,279.02876)" stroke-width="1" stroke-linecap="butt" stroke-miterlimit="10" stroke-linejoin="miter" fill="none" stroke="#000000" d="M408.79835 37.54375H434.84724V68.506908H408.79835Z"/>
</g>
<g clip-path="url(#clip_11)">
<path transform="matrix(1,0,0,-1,0,279.02876)" d="M441.35948 37.54375H467.40837V59.156007H441.35948Z" fill="#dc143c"/>
<path transform="matrix(1,0,0,-1,0,279.02876)" stroke-width="1" stroke-linecap="butt" stroke-miterlimit="10" stroke-linejoin="miter" fill="none" stroke="#000000" d="M441.35948 37.54375H467.40837V59.156007H441.35948Z"/>
</g>
<g clip-path="url(#clip_12)">
<path transform="matrix(1,0,0,-1,0,279.02876)" d="M473.9206 37.54375H499.96949V52.78978H473.9206Z" fill="#dc143c"/>
<path transform="matrix(1,0,0,-1,0,279.02876)" stroke-width="1" stroke-linecap="butt" stroke-miterlimit="10" stroke-linejoin="miter" fill="none" stroke="#000000" d="M473.9206 37.54375H499.96949V52.78978H473.9206Z"/>
</g>
<g clip-path="url(#clip_13)">
<path transform="matrix(1,0,0,-1,0,279.02876)" d="M506.48173 37.54375H532.53067V48.117559H506.48173Z" fill="#dc143c"/>
<path transform="matrix(1,0,0,-1,0,279.02876)" stroke-width="1" stroke-linecap="butt" stroke-miterlimit="10" stroke-linejoin="miter" fill="none" stroke="#000000" d="M506.48173 37.54375H532.53067V48.117559H506.48173Z"/>
</g>
<g clip-path="url(#clip_14)">
<path transform="matrix(1,0,0,-1,0,279.02876)" d="M539.04287 37.54375H565.09176V44.577898H539.04287Z" fill="#dc143c"/>
<path transform="matrix(1,0,0,-1,0,279.02876)" stroke-width="1" stroke-linecap="butt" stroke-miterlimit="10" stroke-linejoin="miter" fill="none" stroke="#000000" d="M539.04287 37.54375H565.09176V44.577898H539.04287Z"/>
</g>
<g clip-path="url(#clip_15)">
<path transform="matrix(1,0,0,-1,0,279.02876)" d="M571.60397 37.54375H597.6529V42.86776H571.60397Z" fill="#dc143c"/>
<path transform="matrix(1,0,0,-1,0,279.02876)" stroke-width="1" stroke-linecap="butt" stroke-miterlimit="10" stroke-linejoin="miter" fill="none" stroke="#000000" d="M571.60397 37.54375H597.6529V42.86776H571.60397Z"/>
</g>
<g clip-path="url(#clip_16)">
<path transform="matrix(1,0,0,-1,0,279.02876)" d="M604.1651 37.54375H630.214V41.36736H604.1651Z" fill="#dc143c"/>
<path transform="matrix(1,0,0,-1,0,279.02876)" stroke-width="1" stroke-linecap="butt" stroke-miterlimit="10" stroke-linejoin="miter" fill="none" stroke="#000000" d="M604.1651 37.54375H630.214V41.36736H604.1651Z"/>
</g>
<g clip-path="url(#clip_17)">
<path transform="matrix(1,0,0,-1,0,279.02876)" d="M636.72628 37.54375H662.77517V40.044424H636.72628Z" fill="#dc143c"/>
<path transform="matrix(1,0,0,-1,0,279.02876)" stroke-width="1" stroke-linecap="butt" stroke-miterlimit="10" stroke-linejoin="miter" fill="none" stroke="#000000" d="M636.72628 37.54375H662.77517V40.044424H636.72628Z"/>
</g>
<g clip-path="url(#clip_18)">
<path transform="matrix(1,0,0,-1,0,279.02876)" d="M669.28738 37.54375H695.33627V39.421674H669.28738Z" fill="#dc143c"/>
<path transform="matrix(1,0,0,-1,0,279.02876)" stroke-width="1" stroke-linecap="butt" stroke-miterlimit="10" stroke-linejoin="miter" fill="none" stroke="#000000" d="M669.28738 37.54375H695.33627V39.421674H669.28738Z"/>
</g>
<g clip-path="url(#clip_19)">
<path transform="matrix(1,0,0,-1,0,279.02876)" d="M701.8485 37.54375H727.8974V38.866689H701.8485Z" fill="#dc143c"/>
<path transform="matrix(1,0,0,-1,0,279.02876)" stroke-width="1" stroke-linecap="butt" stroke-miterlimit="10" stroke-linejoin="miter" fill="none" stroke="#000000" d="M701.8485 37.54375H727.8974V38.866689H701.8485Z"/>
</g>
<g clip-path="url(#clip_20)">
<path transform="matrix(1,0,0,-1,0,279.02876)" d="M718.129 37.54375H744.178V41.309278H718.129Z" fill="#dc143c"/>
<path transform="matrix(1,0,0,-1,0,279.02876)" stroke-width="1" stroke-linecap="butt" stroke-miterlimit="10" stroke-linejoin="miter" fill="none" stroke="#000000" d="M718.129 37.54375H744.178V41.309278H718.129Z"/>
</g>
<path transform="matrix(1,0,0,-1,0,279.02876)" d="M96.211498 37.54375V34.04375"/>
<path transform="matrix(1,0,0,-1,0,279.02876)" stroke-width=".8" stroke-linecap="butt" stroke-linejoin="round" fill="none" stroke="#000000" d="M96.211498 37.54375V34.04375"/>
<path transform="matrix(.010000001,0,0,-.010000001,88.25837,256.07875)" d="M318 664C267 664 229 639 203 589 177 539 165 464 165 364 165 264 177 189 203 139 229 89 267 64 318 64 369 64 407 89 433 139 458 189 471 264 471 364 471 464 458 539 433 589 407 639 369 664 318 664ZM318 742C399 742 461 709 505 645 548 580 570 486 570 364 570 241 548 147 505 83 461 19 399-13 317-13 235-13 173 19 130 83 87 147 66 241 66 364 66 486 87 580 130 645 173 709 236 742 318 742Z"/>
<path transform="matrix(.010000001,0,0,-.010000001,94.61837,256.07875)" d="M107 124H210V0H107V124Z"/>
<path transform="matrix(.010000001,0,0,-.010000001,97.79837,256.07875)" d="M124 83H285V639L110 604V694L284 729H383V83H544V0H124V83Z"/>
<path transform="matrix(1,0,0,-1,0,279.02876)" d="M161.33376 37.54375V34.04375"/>
<path transform="matrix(1,0,0,-1,0,279.02876)" stroke-width=".8" stroke-linecap="butt" stroke-linejoin="round" fill="none" stroke="#000000" d="M161.33376 37.54375V34.04375"/>
<path transform="matrix(.010000001,0,0,-.010000001,153.38063,256.07875)" d="M318 664C267 664 229 639 203 589 177 539 165 464 165 364 165 264 177 189 203 139 229 89 267 64 318 64 369 64 407 89 433 139 458 189 471 264 471 364 471 464 458 539 433 589 407 639 369 664 318 664ZM318 742C399 742 461 709 505 645 548 580 570 486 570 364 570 241 548 147 505 83 461 19 399-13 317-13 235-13 173 19 130 83 87 147 66 241 66 364 66 486 87 580 130 645 173 709 236 742 318 742Z"/>
<path transform="matrix(.010000001,0,0,-.010000001,159.74063,256.07875)" d="M107 124H210V0H107V124Z"/>
<path transform="matrix(.010000001,0,0,-.010000001,162.92063,256.07875)" d="M406 393C453 383 490 362 516 330 542 298 556 258 556 212 556 140 531 84 482 45 432 6 362-13 271-13 240-13 208-10 176-4 144 1 110 10 76 22V117C103 101 133 89 166 81 198 73 232 69 268 69 330 69 377 81 409 105 441 129 458 165 458 212 458 254 443 288 413 312 383 336 341 349 287 349H202V430H291C339 430 376 439 402 459 428 478 441 506 441 543 441 580 427 609 401 629 374 649 336 659 287 659 260 659 231 656 200 650 169 644 135 635 98 623V711C135 721 170 729 203 734 235 739 266 742 296 742 370 742 429 725 473 691 517 657 539 611 539 553 539 513 527 479 504 451 481 423 448 403 406 393Z"/>
<path transform="matrix(1,0,0,-1,0,279.02876)" d="M226.45601 37.54375V34.04375"/>
<path transform="matrix(1,0,0,-1,0,279.02876)" stroke-width=".8" stroke-linecap="butt" stroke-linejoin="round" fill="none" stroke="#000000" d="M226.45601 37.54375V34.04375"/>
<path transform="matrix(.010000001,0,0,-.010000001,218.50289,256.07875)" d="M318 664C267 664 229 639 203 589 177 539 165 464 165 364 165 264 177 189 203 139 229 89 267 64 318 64 369 64 407 89 433 139 458 189 471 264 471 364 471 464 458 539 433 589 407 639 369 664 318 664ZM318 742C399 742 461 709 505 645 548 580 570 486 570 364 570 241 548 147 505 83 461 19 399-13 317-13 235-13 173 19 130 83 87 147 66 241 66 364 66 486 87 580 130 645 173 709 236 742 318 742Z"/>
<path transform="matrix(.010000001,0,0,-.010000001,224.86289,256.07875)" d="M107 124H210V0H107V124Z"/>
<path transform="matrix(.010000001,0,0,-.010000001,228.04288,256.07875)" d="M108 729H495V646H198V467C212 472 227 476 241 478 255 480 270 482 284 482 365 482 429 459 477 415 525 370 549 310 549 234 549 155 524 94 475 51 426 8 357-13 269-13 238-13 207-10 175-6 143-1 111 6 77 17V116C106 100 136 88 168 80 199 72 232 69 267 69 323 69 368 83 401 113 433 143 450 183 450 234 450 284 433 324 401 354 368 384 323 399 267 399 241 399 214 396 188 390 162 384 135 375 108 363V729Z"/>
<path transform="matrix(1,0,0,-1,0,279.02876)" d="M291.57829 37.54375V34.04375"/>
<path transform="matrix(1,0,0,-1,0,279.02876)" stroke-width=".8" stroke-linecap="butt" stroke-linejoin="round" fill="none" stroke="#000000" d="M291.57829 37.54375V34.04375"/>
<path transform="matrix(.010000001,0,0,-.010000001,283.62516,256.07875)" d="M318 664C267 664 229 639 203 589 177 539 165 464 165 364 165 264 177 189 203 139 229 89 267 64 318 64 369 64 407 89 433 139 458 189 471 264 471 364 471 464 458 539 433 589 407 639 369 664 318 664ZM318 742C399 742 461 709 505 645 548 580 570 486 570 364 570 241 548 147 505 83 461 19 399-13 317-13 235-13 173 19 130 83 87 147 66 241 66 364 66 486 87 580 130 645 173 709 236 742 318 742Z"/>
<path transform="matrix(.010000001,0,0,-.010000001,289.98518,256.07875)" d="M107 124H210V0H107V124Z"/>
<path transform="matrix(.010000001,0,0,-.010000001,293.16517,256.07875)" d="M82 729H551V687L286 0H183L432 646H82V729Z"/>
<path transform="matrix(1,0,0,-1,0,279.02876)" d="M356.70054 37.54375V34.04375"/>
<path transform="matrix(1,0,0,-1,0,279.02876)" stroke-width=".8" stroke-linecap="butt" stroke-linejoin="round" fill="none" stroke="#000000" d="M356.70054 37.54375V34.04375"/>
<path transform="matrix(.010000001,0,0,-.010000001,348.7474,256.07875)" d="M318 664C267 664 229 639 203 589 177 539 165 464 165 364 165 264 177 189 203 139 229 89 267 64 318 64 369 64 407 89 433 139 458 189 471 264 471 364 471 464 458 539 433 589 407 639 369 664 318 664ZM318 742C399 742 461 709 505 645 548 580 570 486 570 364 570 241 548 147 505 83 461 19 399-13 317-13 235-13 173 19 130 83 87 147 66 241 66 364 66 486 87 580 130 645 173 709 236 742 318 742Z"/>
<path transform="matrix(.010000001,0,0,-.010000001,355.10743,256.07875)" d="M107 124H210V0H107V124Z"/>
<path transform="matrix(.010000001,0,0,-.010000001,358.2874,256.07875)" d="M110 15V105C134 93 159 84 185 78 210 72 235 69 260 69 324 69 374 90 408 134 442 178 462 244 468 334 448 306 424 284 396 269 367 254 335 247 300 247 226 247 168 269 126 313 84 357 63 417 63 494 63 568 85 628 129 674 173 719 232 742 306 742 390 742 455 709 499 645 543 580 566 486 566 364 566 248 538 157 484 89 429 21 356-13 264-13 239-13 214-10 189-6 163-2 137 5 110 15ZM306 324C350 324 385 339 411 369 437 399 450 441 450 494 450 546 437 588 411 618 385 648 350 664 306 664 262 664 227 648 201 618 175 588 162 546 162 494 162 441 175 399 201 369 227 339 262 324 306 324Z"/>
<path transform="matrix(1,0,0,-1,0,279.02876)" d="M421.82279 37.54375V34.04375"/>
<path transform="matrix(1,0,0,-1,0,279.02876)" stroke-width=".8" stroke-linecap="butt" stroke-linejoin="round" fill="none" stroke="#000000" d="M421.82279 37.54375V34.04375"/>
<path transform="matrix(.010000001,0,0,-.010000001,413.86967,256.07875)" d="M124 83H285V639L110 604V694L284 729H383V83H544V0H124V83Z"/>
<path transform="matrix(.010000001,0,0,-.010000001,420.22969,256.07875)" d="M107 124H210V0H107V124Z"/>
<path transform="matrix(.010000001,0,0,-.010000001,423.40968,256.07875)" d="M124 83H285V639L110 604V694L284 729H383V83H544V0H124V83Z"/>
<path transform="matrix(1,0,0,-1,0,279.02876)" d="M486.94505 37.54375V34.04375"/>
<path transform="matrix(1,0,0,-1,0,279.02876)" stroke-width=".8" stroke-linecap="butt" stroke-linejoin="round" fill="none" stroke="#000000" d="M486.94505 37.54375V34.04375"/>
<path transform="matrix(.010000001,0,0,-.010000001,478.9919,256.07875)" d="M124 83H285V639L110 604V694L284 729H383V83H544V0H124V83Z"/>
<path transform="matrix(.010000001,0,0,-.010000001,485.35194,256.07875)" d="M107 124H210V0H107V124Z"/>
<path transform="matrix(.010000001,0,0,-.010000001,488.53193,256.07875)" d="M406 393C453 383 490 362 516 330 542 298 556 258 556 212 556 140 531 84 482 45 432 6 362-13 271-13 240-13 208-10 176-4 144 1 110 10 76 22V117C103 101 133 89 166 81 198 73 232 69 268 69 330 69 377 81 409 105 441 129 458 165 458 212 458 254 443 288 413 312 383 336 341 349 287 349H202V430H291C339 430 376 439 402 459 428 478 441 506 441 543 441 580 427 609 401 629 374 649 336 659 287 659 260 659 231 656 200 650 169 644 135 635 98 623V711C135 721 170 729 203 734 235 739 266 742 296 742 370 742 429 725 473 691 517 657 539 611 539 553 539 513 527 479 504 451 481 423 448 403 406 393Z"/>
<path transform="matrix(1,0,0,-1,0,279.02876)" d="M552.0673 37.54375V34.04375"/>
<path transform="matrix(1,0,0,-1,0,279.02876)" stroke-width=".8" stroke-linecap="butt" stroke-linejoin="round" fill="none" stroke="#000000" d="M552.0673 37.54375V34.04375"/>
<path transform="matrix(.010000001,0,0,-.010000001,544.1142,256.07875)" d="M124 83H285V639L110 604V694L284 729H383V83H544V0H124V83Z"/>
<path transform="matrix(.010000001,0,0,-.010000001,550.4742,256.07875)" d="M107 124H210V0H107V124Z"/>
<path transform="matrix(.010000001,0,0,-.010000001,553.6542,256.07875)" d="M108 729H495V646H198V467C212 472 227 476 241 478 255 480 270 482 284 482 365 482 429 459 477 415 525 370 549 310 549 234 549 155 524 94 475 51 426 8 357-13 269-13 238-13 207-10 175-6 143-1 111 6 77 17V116C106 100 136 88 168 80 199 72 232 69 267 69 323 69 368 83 401 113 433 143 450 183 450 234 450 284 433 324 401 354 368 384 323 399 267 399 241 399 214 396 188 390 162 384 135 375 108 363V729Z"/>
<path transform="matrix(1,0,0,-1,0,279.02876)" d="M617.1896 37.54375V34.04375"/>
<path transform="matrix(1,0,0,-1,0,279.02876)" stroke-width=".8" stroke-linecap="butt" stroke-linejoin="round" fill="none" stroke="#000000" d="M617.1896 37.54375V34.04375"/>
<path transform="matrix(.010000001,0,0,-.010000001,609.23648,256.07875)" d="M124 83H285V639L110 604V694L284 729H383V83H544V0H124V83Z"/>
<path transform="matrix(.010000001,0,0,-.010000001,615.59646,256.07875)" d="M107 124H210V0H107V124Z"/>
<path transform="matrix(.010000001,0,0,-.010000001,618.7764,256.07875)" d="M82 729H551V687L286 0H183L432 646H82V729Z"/>
<path transform="matrix(1,0,0,-1,0,279.02876)" d="M682.3118 37.54375V34.04375"/>
<path transform="matrix(1,0,0,-1,0,279.02876)" stroke-width=".8" stroke-linecap="butt" stroke-linejoin="round" fill="none" stroke="#000000" d="M682.3118 37.54375V34.04375"/>
<path transform="matrix(.010000001,0,0,-.010000001,674.3587,256.07875)" d="M124 83H285V639L110 604V694L284 729H383V83H544V0H124V83Z"/>
<path transform="matrix(.010000001,0,0,-.010000001,680.7187,256.07875)" d="M107 124H210V0H107V124Z"/>
<path transform="matrix(.010000001,0,0,-.010000001,683.8987,256.07875)" d="M110 15V105C134 93 159 84 185 78 210 72 235 69 260 69 324 69 374 90 408 134 442 178 462 244 468 334 448 306 424 284 396 269 367 254 335 247 300 247 226 247 168 269 126 313 84 357 63 417 63 494 63 568 85 628 129 674 173 719 232 742 306 742 390 742 455 709 499 645 543 580 566 486 566 364 566 248 538 157 484 89 429 21 356-13 264-13 239-13 214-10 189-6 163-2 137 5 110 15ZM306 324C350 324 385 339 411 369 437 399 450 441 450 494 450 546 437 588 411 618 385 648 350 664 306 664 262 664 227 648 201 618 175 588 162 546 162 494 162 441 175 399 201 369 227 339 262 324 306 324Z"/>
<path transform="matrix(1,0,0,-1,0,279.02876)" d="M731.1535 37.54375V34.04375"/>
<path transform="matrix(1,0,0,-1,0,279.02876)" stroke-width=".8" stroke-linecap="butt" stroke-linejoin="round" fill="none" stroke="#000000" d="M731.1535 37.54375V34.04375"/>
<path transform="matrix(.010000001,0,0,-.010000001,728.38888,256.07875)" d="M192 83H536V0H73V83C110 121 161 173 226 239 290 304 331 346 348 365 380 400 402 430 414 455 426 479 433 504 433 528 433 566 419 598 392 622 365 646 330 659 286 659 255 659 222 653 188 643 154 632 117 616 78 594V694C118 710 155 722 189 730 223 738 255 742 284 742 359 742 419 723 464 685 509 647 532 597 532 534 532 504 526 475 515 449 504 422 484 390 454 354 446 344 420 317 376 272 332 227 271 164 192 83Z"/>
<path transform="matrix(.010000001,0,0,-.010000001,734.74887,256.07875)" d="M107 124H210V0H107V124Z"/>
<path transform="matrix(.010000001,0,0,-.010000001,737.92886,256.07875)" d="M318 664C267 664 229 639 203 589 177 539 165 464 165 364 165 264 177 189 203 139 229 89 267 64 318 64 369 64 407 89 433 139 458 189 471 264 471 364 471 464 458 539 433 589 407 639 369 664 318 664ZM318 742C399 742 461 709 505 645 548 580 570 486 570 364 570 241 548 147 505 83 461 19 399-13 317-13 235-13 173 19 130 83 87 147 66 241 66 364 66 486 87 580 130 645 173 709 236 742 318 742Z"/>
<g clip-path="url(#clip_21)">
<path transform="matrix(.01,0,0,-.01,718.0129,256.07875)" d="M106 496V582L732 403V320L106 140V227L575 361 106 496ZM732 83V0H106V83H732Z"/>
</g>
<g clip-path="url(#clip_22)">
<path transform="matrix(.01,0,0,-.01,726.3918,256.07875)" d=""/>
</g>
<path transform="matrix(.010000001,0,0,-.010000001,343.4364,269.7506)" d=""/>
<path transform="matrix(.010000001,0,0,-.010000001,346.6164,269.7506)" d="M94 760H184V0H94V760Z"/>
<path transform="matrix(.010000001,0,0,-.010000001,349.3964,269.7506)" d="M306 484C258 484 220 465 192 427 164 389 150 338 150 273 150 207 163 156 191 118 219 80 257 62 306 62 354 62 392 80 420 118 448 156 462 207 462 273 462 337 448 389 420 427 392 465 354 484 306 484ZM306 560C384 560 445 534 490 484 534 433 557 363 557 273 557 183 534 113 490 63 445 12 384-13 306-13 227-13 165 12 121 63 77 113 55 183 55 273 55 363 77 433 121 484 165 534 227 560 306 560Z"/>
<path transform="matrix(.010000001,0,0,-.010000001,355.51643,269.7506)" d="M454 280C454 344 440 395 414 431 387 467 349 485 301 485 253 485 215 467 188 431 161 395 148 344 148 280 148 215 161 165 188 129 215 93 253 75 301 75 349 75 387 93 414 129 440 165 454 215 454 280ZM544 68C544-24 523-93 482-139 440-184 377-207 292-207 260-207 231-204 203-200 175-195 147-188 121-178V-91C147-105 173-115 199-122 225-129 251-133 278-133 336-133 380-117 410-87 439-56 454-10 454 52V96C435 64 411 40 382 24 353 8 319 0 279 0 211 0 157 25 116 76 75 127 55 195 55 280 55 364 75 432 116 483 157 534 211 560 279 560 319 560 353 552 382 536 411 520 435 496 454 464V547H544V68Z"/>
<path transform="matrix(.010000001,0,0,-.010000001,361.8664,269.7506)" d=""/>
<path transform="matrix(.010000001,0,0,-.010000001,365.04643,269.7506)" d="M181 82V-207H91V547H181V464C199 496 223 520 252 536 281 552 316 560 356 560 422 560 476 533 518 481 559 428 580 359 580 273 580 187 559 117 518 65 476 13 422-13 356-13 316-13 281-5 252 10 223 25 199 49 181 82ZM487 273C487 339 473 390 446 428 418 466 381 485 334 485 286 485 249 466 222 428 194 390 181 339 181 273 181 207 194 155 222 117 249 79 286 61 334 61 381 61 418 79 446 117 473 155 487 207 487 273Z"/>
<path transform="matrix(.010000001,0,0,-.010000001,371.3964,269.7506)" d=""/>
<path transform="matrix(.010000001,0,0,-.010000001,374.57643,269.7506)" d=""/>
<path transform="matrix(.010000001,0,0,-.010000001,377.7564,269.7506)" d="M310 759C266 683 234 609 213 536 191 463 181 389 181 314 181 238 191 164 213 91 234 17 266-56 310-131H232C183-54 146 20 122 94 98 168 86 241 86 314 86 386 98 459 122 533 146 607 182 682 232 759H310Z"/>
<path transform="matrix(.010000001,0,0,-.010000001,381.6564,269.7506)" d="M30 547H125L296 88 467 547H562L357 0H235L30 547Z"/>
<path transform="matrix(.010000001,0,0,-.010000001,387.57643,269.7506)" d="M343 275C270 275 220 266 192 250 164 233 150 205 150 165 150 133 160 107 181 89 202 70 231 61 267 61 317 61 357 78 387 114 417 149 432 196 432 255V275H343ZM522 312V0H432V83C411 49 385 25 355 10 325-5 287-13 243-13 187-13 142 2 109 33 76 64 60 106 60 159 60 220 80 266 122 298 163 329 224 345 306 345H432V354C432 395 418 427 391 450 364 472 326 484 277 484 245 484 215 480 185 472 155 464 127 453 100 439V522C132 534 164 544 195 550 226 556 256 560 286 560 365 560 424 539 463 498 502 457 522 395 522 312Z"/>
<path transform="matrix(.010000001,0,0,-.010000001,393.70643,269.7506)" d="M94 760H184V0H94V760Z"/>
<path transform="matrix(.010000001,0,0,-.010000001,396.48643,269.7506)" d="M85 216V547H175V219C175 167 185 129 205 103 225 77 255 64 296 64 344 64 383 79 411 110 439 141 453 183 453 237V547H543V0H453V84C431 50 405 26 377 10 348-5 315-13 277-13 214-13 166 6 134 45 101 83 85 140 85 216ZM311 560V560Z"/>
<path transform="matrix(.010000001,0,0,-.010000001,402.82643,269.7506)" d="M562 296V252H149C153 190 171 142 205 110 238 78 284 62 344 62 378 62 412 66 444 74 476 82 509 95 541 113V28C509 14 476 3 442-3 408-9 373-13 339-13 251-13 182 12 131 62 80 112 55 181 55 268 55 357 79 428 127 481 175 533 241 560 323 560 397 560 455 536 498 489 540 441 562 377 562 296ZM472 322C471 371 457 410 431 440 404 469 368 484 324 484 274 484 234 469 204 441 174 413 156 373 152 322H472Z"/>
<path transform="matrix(.010000001,0,0,-.010000001,408.9764,269.7506)" d="M443 531V446C417 458 391 468 364 475 336 481 308 485 279 485 234 485 200 478 178 464 156 450 145 430 145 403 145 382 153 366 169 354 185 342 217 330 265 320L296 313C360 299 405 279 432 255 458 230 472 195 472 151 472 100 452 60 412 31 372 1 316-13 246-13 216-13 186-10 154-5 122 0 89 8 54 20V113C87 95 120 82 152 74 184 65 216 61 248 61 290 61 323 68 346 82 368 96 380 117 380 144 380 168 371 187 355 200 339 213 303 226 247 238L216 245C160 257 119 275 95 299 70 323 58 356 58 399 58 450 76 490 112 518 148 546 200 560 268 560 301 560 332 557 362 552 391 547 418 540 443 531Z"/>
<path transform="matrix(.010000001,0,0,-.010000001,414.1864,269.7506)" d=""/>
<path transform="matrix(.010000001,0,0,-.010000001,417.3664,269.7506)" d="M106 492V581L732 354V273L106 46V135L609 313 106 492Z"/>
<path transform="matrix(.010000001,0,0,-.010000001,427.7235,269.7506)" d="M192 83H536V0H73V83C110 121 161 173 226 239 290 304 331 346 348 365 380 400 402 430 414 455 426 479 433 504 433 528 433 566 419 598 392 622 365 646 330 659 286 659 255 659 222 653 188 643 154 632 117 616 78 594V694C118 710 155 722 189 730 223 738 255 742 284 742 359 742 419 723 464 685 509 647 532 597 532 534 532 504 526 475 515 449 504 422 484 390 454 354 446 344 420 317 376 272 332 227 271 164 192 83Z"/>
<path transform="matrix(.010000001,0,0,-.010000001,434.0835,269.7506)" d="M107 124H210V0H107V124Z"/>
<path transform="matrix(.010000001,0,0,-.010000001,437.26353,269.7506)" d="M318 664C267 664 229 639 203 589 177 539 165 464 165 364 165 264 177 189 203 139 229 89 267 64 318 64 369 64 407 89 433 139 458 189 471 264 471 364 471 464 458 539 433 589 407 639 369 664 318 664ZM318 742C399 742 461 709 505 645 548 580 570 486 570 364 570 241 548 147 505 83 461 19 399-13 317-13 235-13 173 19 130 83 87 147 66 241 66 364 66 486 87 580 130 645 173 709 236 742 318 742Z"/>
<path transform="matrix(.010000001,0,0,-.010000001,443.6235,269.7506)" d=""/>
<path transform="matrix(.010000001,0,0,-.010000001,446.80354,269.7506)" d="M454 280C454 344 440 395 414 431 387 467 349 485 301 485 253 485 215 467 188 431 161 395 148 344 148 280 148 215 161 165 188 129 215 93 253 75 301 75 349 75 387 93 414 129 440 165 454 215 454 280ZM544 68C544-24 523-93 482-139 440-184 377-207 292-207 260-207 231-204 203-200 175-195 147-188 121-178V-91C147-105 173-115 199-122 225-129 251-133 278-133 336-133 380-117 410-87 439-56 454-10 454 52V96C435 64 411 40 382 24 353 8 319 0 279 0 211 0 157 25 116 76 75 127 55 195 55 280 55 364 75 432 116 483 157 534 211 560 279 560 319 560 353 552 382 536 411 520 435 496 454 464V547H544V68Z"/>
<path transform="matrix(.010000001,0,0,-.010000001,453.1535,269.7506)" d="M411 463C401 469 390 473 378 476 366 478 353 480 339 480 288 480 249 463 222 430 194 397 181 350 181 288V0H91V547H181V462C199 495 224 520 254 536 284 552 321 560 365 560 371 560 378 559 386 559 393 558 401 557 411 555V463Z"/>
<path transform="matrix(.010000001,0,0,-.010000001,457.04478,269.7506)" d="M306 484C258 484 220 465 192 427 164 389 150 338 150 273 150 207 163 156 191 118 219 80 257 62 306 62 354 62 392 80 420 118 448 156 462 207 462 273 462 337 448 389 420 427 392 465 354 484 306 484ZM306 560C384 560 445 534 490 484 534 433 557 363 557 273 557 183 534 113 490 63 445 12 384-13 306-13 227-13 165 12 121 63 77 113 55 183 55 273 55 363 77 433 121 484 165 534 227 560 306 560Z"/>
<path transform="matrix(.010000001,0,0,-.010000001,463.16477,269.7506)" d="M85 216V547H175V219C175 167 185 129 205 103 225 77 255 64 296 64 344 64 383 79 411 110 439 141 453 183 453 237V547H543V0H453V84C431 50 405 26 377 10 348-5 315-13 277-13 214-13 166 6 134 45 101 83 85 140 85 216ZM311 560V560Z"/>
<path transform="matrix(.010000001,0,0,-.010000001,469.50477,269.7506)" d="M181 82V-207H91V547H181V464C199 496 223 520 252 536 281 552 316 560 356 560 422 560 476 533 518 481 559 428 580 359 580 273 580 187 559 117 518 65 476 13 422-13 356-13 316-13 281-5 252 10 223 25 199 49 181 82ZM487 273C487 339 473 390 446 428 418 466 381 485 334 485 286 485 249 466 222 428 194 390 181 339 181 273 181 207 194 155 222 117 249 79 286 61 334 61 381 61 418 79 446 117 473 155 487 207 487 273Z"/>
<path transform="matrix(.010000001,0,0,-.010000001,475.85478,269.7506)" d="M562 296V252H149C153 190 171 142 205 110 238 78 284 62 344 62 378 62 412 66 444 74 476 82 509 95 541 113V28C509 14 476 3 442-3 408-9 373-13 339-13 251-13 182 12 131 62 80 112 55 181 55 268 55 357 79 428 127 481 175 533 241 560 323 560 397 560 455 536 498 489 540 441 562 377 562 296ZM472 322C471 371 457 410 431 440 404 469 368 484 324 484 274 484 234 469 204 441 174 413 156 373 152 322H472Z"/>
<path transform="matrix(.010000001,0,0,-.010000001,482.00477,269.7506)" d="M454 464V760H544V0H454V82C435 49 411 25 382 10 353-5 319-13 279-13 213-13 159 13 117 65 75 117 55 187 55 273 55 359 75 428 117 481 159 533 213 560 279 560 319 560 353 552 382 536 411 520 435 496 454 464ZM148 273C148 207 161 155 188 117 215 79 252 61 300 61 348 61 385 79 413 117 440 155 454 207 454 273 454 339 440 390 413 428 385 466 348 485 300 485 252 485 215 466 188 428 161 390 148 339 148 273Z"/>
<path transform="matrix(.010000001,0,0,-.010000001,488.35478,269.7506)" d="M80 759H158C206 682 243 607 267 533 291 459 304 386 304 314 304 241 291 168 267 94 243 20 206-54 158-131H80C123-56 155 17 177 91 198 164 209 238 209 314 209 389 198 463 177 536 155 609 123 683 80 759Z"/>
<g clip-path="url(#clip_23)">
<path transform="matrix(.01,0,0,-.01,335.0575,269.7506)" d="M106 355H732V272H106V355Z"/>
</g>
<g clip-path="url(#clip_24)">
<path transform="matrix(.01,0,0,-.01,425.72645,269.7506)" d=""/>
</g>
<g clip-path="url(#clip_25)">
<path transform="matrix(1,0,0,-1,0,279.02876)" stroke-width=".8" stroke-linecap="butt" stroke-dasharray=".8,1.32" stroke-linejoin="round" fill="none" stroke="#b0b0b0" stroke-opacity=".5" d="M50.1375 37.54375H777.2275"/>
</g>
<path transform="matrix(1,0,0,-1,0,279.02876)" d="M50.1375 37.54375H46.6375"/>
<path transform="matrix(1,0,0,-1,0,279.02876)" stroke-width=".8" stroke-linecap="butt" stroke-linejoin="round" fill="none" stroke="#000000" d="M50.1375 37.54375H46.6375"/>
<path transform="matrix(.010000001,0,0,-.010000001,20.871876,245.28188)" d="M318 664C267 664 229 639 203 589 177 539 165 464 165 364 165 264 177 189 203 139 229 89 267 64 318 64 369 64 407 89 433 139 458 189 471 264 471 364 471 464 458 539 433 589 407 639 369 664 318 664ZM318 742C399 742 461 709 505 645 548 580 570 486 570 364 570 241 548 147 505 83 461 19 399-13 317-13 235-13 173 19 130 83 87 147 66 241 66 364 66 486 87 580 130 645 173 709 236 742 318 742Z"/>
<path transform="matrix(.010000001,0,0,-.010000001,27.231877,245.28188)" d="M107 124H210V0H107V124Z"/>
<path transform="matrix(.010000001,0,0,-.010000001,30.411877,245.28188)" d="M318 664C267 664 229 639 203 589 177 539 165 464 165 364 165 264 177 189 203 139 229 89 267 64 318 64 369 64 407 89 433 139 458 189 471 264 471 364 471 464 458 539 433 589 407 639 369 664 318 664ZM318 742C399 742 461 709 505 645 548 580 570 486 570 364 570 241 548 147 505 83 461 19 399-13 317-13 235-13 173 19 130 83 87 147 66 241 66 364 66 486 87 580 130 645 173 709 236 742 318 742Z"/>
<path transform="matrix(.010000001,0,0,-.010000001,36.771879,245.28188)" d="M318 664C267 664 229 639 203 589 177 539 165 464 165 364 165 264 177 189 203 139 229 89 267 64 318 64 369 64 407 89 433 139 458 189 471 264 471 364 471 464 458 539 433 589 407 639 369 664 318 664ZM318 742C399 742 461 709 505 645 548 580 570 486 570 364 570 241 548 147 505 83 461 19 399-13 317-13 235-13 173 19 130 83 87 147 66 241 66 364 66 486 87 580 130 645 173 709 236 742 318 742Z"/>
<g clip-path="url(#clip_26)">
<path transform="matrix(1,0,0,-1,0,279.02876)" stroke-width=".8" stroke-linecap="butt" stroke-dasharray=".8,1.32" stroke-linejoin="round" fill="none" stroke="#b0b0b0" stroke-opacity=".5" d="M50.1375 62.74807H777.2275"/>
</g>
<path transform="matrix(1,0,0,-1,0,279.02876)" d="M50.1375 62.74807H46.6375"/>
<path transform="matrix(1,0,0,-1,0,279.02876)" stroke-width=".8" stroke-linecap="butt" stroke-linejoin="round" fill="none" stroke="#000000" d="M50.1375 62.74807H46.6375"/>
<path transform="matrix(.010000001,0,0,-.010000001,20.871876,220.07755)" d="M318 664C267 664 229 639 203 589 177 539 165 464 165 364 165 264 177 189 203 139 229 89 267 64 318 64 369 64 407 89 433 139 458 189 471 264 471 364 471 464 458 539 433 589 407 639 369 664 318 664ZM318 742C399 742 461 709 505 645 548 580 570 486 570 364 570 241 548 147 505 83 461 19 399-13 317-13 235-13 173 19 130 83 87 147 66 241 66 364 66 486 87 580 130 645 173 709 236 742 318 742Z"/>
<path transform="matrix(.010000001,0,0,-.010000001,27.231877,220.07755)" d="M107 124H210V0H107V124Z"/>
<path transform="matrix(.010000001,0,0,-.010000001,30.411877,220.07755)" d="M318 664C267 664 229 639 203 589 177 539 165 464 165 364 165 264 177 189 203 139 229 89 267 64 318 64 369 64 407 89 433 139 458 189 471 264 471 364 471 464 458 539 433 589 407 639 369 664 318 664ZM318 742C399 742 461 709 505 645 548 580 570 486 570 364 570 241 548 147 505 83 461 19 399-13 317-13 235-13 173 19 130 83 87 147 66 241 66 364 66 486 87 580 130 645 173 709 236 742 318 742Z"/>
<path transform="matrix(.010000001,0,0,-.010000001,36.771879,220.07755)" d="M192 83H536V0H73V83C110 121 161 173 226 239 290 304 331 346 348 365 380 400 402 430 414 455 426 479 433 504 433 528 433 566 419 598 392 622 365 646 330 659 286 659 255 659 222 653 188 643 154 632 117 616 78 594V694C118 710 155 722 189 730 223 738 255 742 284 742 359 742 419 723 464 685 509 647 532 597 532 534 532 504 526 475 515 449 504 422 484 390 454 354 446 344 420 317 376 272 332 227 271 164 192 83Z"/>
<g clip-path="url(#clip_27)">
<path transform="matrix(1,0,0,-1,0,279.02876)" stroke-width=".8" stroke-linecap="butt" stroke-dasharray=".8,1.32" stroke-linejoin="round" fill="none" stroke="#b0b0b0" stroke-opacity=".5" d="M50.1375 87.952388H777.2275"/>
</g>
<path transform="matrix(1,0,0,-1,0,279.02876)" d="M50.1375 87.952388H46.6375"/>
<path transform="matrix(1,0,0,-1,0,279.02876)" stroke-width=".8" stroke-linecap="butt" stroke-linejoin="round" fill="none" stroke="#000000" d="M50.1375 87.952388H46.6375"/>
<path transform="matrix(.010000001,0,0,-.010000001,20.871876,194.87323)" d="M318 664C267 664 229 639 203 589 177 539 165 464 165 364 165 264 177 189 203 139 229 89 267 64 318 64 369 64 407 89 433 139 458 189 471 264 471 364 471 464 458 539 433 589 407 639 369 664 318 664ZM318 742C399 742 461 709 505 645 548 580 570 486 570 364 570 241 548 147 505 83 461 19 399-13 317-13 235-13 173 19 130 83 87 147 66 241 66 364 66 486 87 580 130 645 173 709 236 742 318 742Z"/>
<path transform="matrix(.010000001,0,0,-.010000001,27.231877,194.87323)" d="M107 124H210V0H107V124Z"/>
<path transform="matrix(.010000001,0,0,-.010000001,30.411877,194.87323)" d="M318 664C267 664 229 639 203 589 177 539 165 464 165 364 165 264 177 189 203 139 229 89 267 64 318 64 369 64 407 89 433 139 458 189 471 264 471 364 471 464 458 539 433 589 407 639 369 664 318 664ZM318 742C399 742 461 709 505 645 548 580 570 486 570 364 570 241 548 147 505 83 461 19 399-13 317-13 235-13 173 19 130 83 87 147 66 241 66 364 66 486 87 580 130 645 173 709 236 742 318 742Z"/>
<path transform="matrix(.010000001,0,0,-.010000001,36.771879,194.87323)" d="M378 643 129 254H378V643ZM352 729H476V254H580V172H476V0H378V172H49V267L352 729Z"/>
<g clip-path="url(#clip_28)">
<path transform="matrix(1,0,0,-1,0,279.02876)" stroke-width=".8" stroke-linecap="butt" stroke-dasharray=".8,1.32" stroke-linejoin="round" fill="none" stroke="#b0b0b0" stroke-opacity=".5" d="M50.1375 113.15671H777.2275"/>
</g>
<path transform="matrix(1,0,0,-1,0,279.02876)" d="M50.1375 113.15671H46.6375"/>
<path transform="matrix(1,0,0,-1,0,279.02876)" stroke-width=".8" stroke-linecap="butt" stroke-linejoin="round" fill="none" stroke="#000000" d="M50.1375 113.15671H46.6375"/>
<path transform="matrix(.010000001,0,0,-.010000001,20.871876,169.66892)" d="M318 664C267 664 229 639 203 589 177 539 165 464 165 364 165 264 177 189 203 139 229 89 267 64 318 64 369 64 407 89 433 139 458 189 471 264 471 364 471 464 458 539 433 589 407 639 369 664 318 664ZM318 742C399 742 461 709 505 645 548 580 570 486 570 364 570 241 548 147 505 83 461 19 399-13 317-13 235-13 173 19 130 83 87 147 66 241 66 364 66 486 87 580 130 645 173 709 236 742 318 742Z"/>
<path transform="matrix(.010000001,0,0,-.010000001,27.231877,169.66892)" d="M107 124H210V0H107V124Z"/>
<path transform="matrix(.010000001,0,0,-.010000001,30.411877,169.66892)" d="M318 664C267 664 229 639 203 589 177 539 165 464 165 364 165 264 177 189 203 139 229 89 267 64 318 64 369 64 407 89 433 139 458 189 471 264 471 364 471 464 458 539 433 589 407 639 369 664 318 664ZM318 742C399 742 461 709 505 645 548 580 570 486 570 364 570 241 548 147 505 83 461 19 399-13 317-13 235-13 173 19 130 83 87 147 66 241 66 364 66 486 87 580 130 645 173 709 236 742 318 742Z"/>
<path transform="matrix(.010000001,0,0,-.010000001,36.771879,169.66892)" d="M330 404C286 404 251 388 225 358 199 328 186 286 186 234 186 181 199 139 225 109 251 79 286 64 330 64 374 64 409 79 435 109 461 139 474 181 474 234 474 286 461 328 435 358 409 388 374 404 330 404ZM526 713V623C501 635 476 644 451 650 425 656 400 659 376 659 310 659 260 637 226 593 192 549 172 482 168 394 187 422 211 444 240 459 269 474 301 482 336 482 409 482 467 459 509 415 551 371 573 310 573 234 573 159 550 99 506 54 462 9 403-13 330-13 246-13 181 19 137 83 92 147 70 241 70 364 70 479 97 571 152 639 206 707 280 742 372 742 396 742 421 739 447 735 472 730 498 723 526 713Z"/>
<g clip-path="url(#clip_29)">
<path transform="matrix(1,0,0,-1,0,279.02876)" stroke-width=".8" stroke-linecap="butt" stroke-dasharray=".8,1.32" stroke-linejoin="round" fill="none" stroke="#b0b0b0" stroke-opacity=".5" d="M50.1375 138.36103H777.2275"/>
</g>
<path transform="matrix(1,0,0,-1,0,279.02876)" d="M50.1375 138.36103H46.6375"/>
<path transform="matrix(1,0,0,-1,0,279.02876)" stroke-width=".8" stroke-linecap="butt" stroke-linejoin="round" fill="none" stroke="#000000" d="M50.1375 138.36103H46.6375"/>
<path transform="matrix(.010000001,0,0,-.010000001,20.871876,144.4646)" d="M318 664C267 664 229 639 203 589 177 539 165 464 165 364 165 264 177 189 203 139 229 89 267 64 318 64 369 64 407 89 433 139 458 189 471 264 471 364 471 464 458 539 433 589 407 639 369 664 318 664ZM318 742C399 742 461 709 505 645 548 580 570 486 570 364 570 241 548 147 505 83 461 19 399-13 317-13 235-13 173 19 130 83 87 147 66 241 66 364 66 486 87 580 130 645 173 709 236 742 318 742Z"/>
<path transform="matrix(.010000001,0,0,-.010000001,27.231877,144.4646)" d="M107 124H210V0H107V124Z"/>
<path transform="matrix(.010000001,0,0,-.010000001,30.411877,144.4646)" d="M318 664C267 664 229 639 203 589 177 539 165 464 165 364 165 264 177 189 203 139 229 89 267 64 318 64 369 64 407 89 433 139 458 189 471 264 471 364 471 464 458 539 433 589 407 639 369 664 318 664ZM318 742C399 742 461 709 505 645 548 580 570 486 570 364 570 241 548 147 505 83 461 19 399-13 317-13 235-13 173 19 130 83 87 147 66 241 66 364 66 486 87 580 130 645 173 709 236 742 318 742Z"/>
<path transform="matrix(.010000001,0,0,-.010000001,36.771879,144.4646)" d="M318 346C271 346 234 333 207 308 180 283 167 249 167 205 167 161 180 126 207 101 234 76 271 64 318 64 364 64 401 76 428 102 455 127 469 161 469 205 469 249 455 283 429 308 402 333 365 346 318 346ZM219 388C177 398 144 418 120 447 96 476 85 511 85 553 85 611 105 657 147 691 188 725 245 742 318 742 390 742 447 725 489 691 530 657 551 611 551 553 551 511 539 476 515 447 491 418 459 398 417 388 464 377 501 355 528 323 554 291 568 251 568 205 568 134 546 80 503 43 459 5 397-13 317-13 237-13 175 5 132 43 89 80 68 134 68 205 68 251 81 291 108 323 134 355 171 377 219 388ZM183 544C183 506 194 476 218 455 242 434 275 424 318 424 360 424 393 434 417 455 441 476 453 506 453 544 453 582 441 611 417 632 393 653 360 664 318 664 275 664 242 653 218 632 194 611 183 582 183 544Z"/>
<g clip-path="url(#clip_30)">
<path transform="matrix(1,0,0,-1,0,279.02876)" stroke-width=".8" stroke-linecap="butt" stroke-dasharray=".8,1.32" stroke-linejoin="round" fill="none" stroke="#b0b0b0" stroke-opacity=".5" d="M50.1375 163.56534H777.2275"/>
</g>
<path transform="matrix(1,0,0,-1,0,279.02876)" d="M50.1375 163.56534H46.6375"/>
<path transform="matrix(1,0,0,-1,0,279.02876)" stroke-width=".8" stroke-linecap="butt" stroke-linejoin="round" fill="none" stroke="#000000" d="M50.1375 163.56534H46.6375"/>
<path transform="matrix(.010000001,0,0,-.010000001,20.871876,119.260288)" d="M318 664C267 664 229 639 203 589 177 539 165 464 165 364 165 264 177 189 203 139 229 89 267 64 318 64 369 64 407 89 433 139 458 189 471 264 471 364 471 464 458 539 433 589 407 639 369 664 318 664ZM318 742C399 742 461 709 505 645 548 580 570 486 570 364 570 241 548 147 505 83 461 19 399-13 317-13 235-13 173 19 130 83 87 147 66 241 66 364 66 486 87 580 130 645 173 709 236 742 318 742Z"/>
<path transform="matrix(.010000001,0,0,-.010000001,27.231877,119.260288)" d="M107 124H210V0H107V124Z"/>
<path transform="matrix(.010000001,0,0,-.010000001,30.411877,119.260288)" d="M124 83H285V639L110 604V694L284 729H383V83H544V0H124V83Z"/>
<path transform="matrix(.010000001,0,0,-.010000001,36.771879,119.260288)" d="M318 664C267 664 229 639 203 589 177 539 165 464 165 364 165 264 177 189 203 139 229 89 267 64 318 64 369 64 407 89 433 139 458 189 471 264 471 364 471 464 458 539 433 589 407 639 369 664 318 664ZM318 742C399 742 461 709 505 645 548 580 570 486 570 364 570 241 548 147 505 83 461 19 399-13 317-13 235-13 173 19 130 83 87 147 66 241 66 364 66 486 87 580 130 645 173 709 236 742 318 742Z"/>
<g clip-path="url(#clip_31)">
<path transform="matrix(1,0,0,-1,0,279.02876)" stroke-width=".8" stroke-linecap="butt" stroke-dasharray=".8,1.32" stroke-linejoin="round" fill="none" stroke="#b0b0b0" stroke-opacity=".5" d="M50.1375 188.76967H777.2275"/>
</g>
<path transform="matrix(1,0,0,-1,0,279.02876)" d="M50.1375 188.76967H46.6375"/>
<path transform="matrix(1,0,0,-1,0,279.02876)" stroke-width=".8" stroke-linecap="butt" stroke-linejoin="round" fill="none" stroke="#000000" d="M50.1375 188.76967H46.6375"/>
<path transform="matrix(.010000001,0,0,-.010000001,20.871876,94.055957)" d="M318 664C267 664 229 639 203 589 177 539 165 464 165 364 165 264 177 189 203 139 229 89 267 64 318 64 369 64 407 89 433 139 458 189 471 264 471 364 471 464 458 539 433 589 407 639 369 664 318 664ZM318 742C399 742 461 709 505 645 548 580 570 486 570 364 570 241 548 147 505 83 461 19 399-13 317-13 235-13 173 19 130 83 87 147 66 241 66 364 66 486 87 580 130 645 173 709 236 742 318 742Z"/>
<path transform="matrix(.010000001,0,0,-.010000001,27.231877,94.055957)" d="M107 124H210V0H107V124Z"/>
<path transform="matrix(.010000001,0,0,-.010000001,30.411877,94.055957)" d="M124 83H285V639L110 604V694L284 729H383V83H544V0H124V83Z"/>
<path transform="matrix(.010000001,0,0,-.010000001,36.771879,94.055957)" d="M192 83H536V0H73V83C110 121 161 173 226 239 290 304 331 346 348 365 380 400 402 430 414 455 426 479 433 504 433 528 433 566 419 598 392 622 365 646 330 659 286 659 255 659 222 653 188 643 154 632 117 616 78 594V694C118 710 155 722 189 730 223 738 255 742 284 742 359 742 419 723 464 685 509 647 532 597 532 534 532 504 526 475 515 449 504 422 484 390 454 354 446 344 420 317 376 272 332 227 271 164 192 83Z"/>
<g clip-path="url(#clip_32)">
<path transform="matrix(1,0,0,-1,0,279.02876)" stroke-width=".8" stroke-linecap="butt" stroke-dasharray=".8,1.32" stroke-linejoin="round" fill="none" stroke="#b0b0b0" stroke-opacity=".5" d="M50.1375 213.97399H777.2275"/>
</g>
<path transform="matrix(1,0,0,-1,0,279.02876)" d="M50.1375 213.97399H46.6375"/>
<path transform="matrix(1,0,0,-1,0,279.02876)" stroke-width=".8" stroke-linecap="butt" stroke-linejoin="round" fill="none" stroke="#000000" d="M50.1375 213.97399H46.6375"/>
<path transform="matrix(.010000001,0,0,-.010000001,20.871876,68.85164)" d="M318 664C267 664 229 639 203 589 177 539 165 464 165 364 165 264 177 189 203 139 229 89 267 64 318 64 369 64 407 89 433 139 458 189 471 264 471 364 471 464 458 539 433 589 407 639 369 664 318 664ZM318 742C399 742 461 709 505 645 548 580 570 486 570 364 570 241 548 147 505 83 461 19 399-13 317-13 235-13 173 19 130 83 87 147 66 241 66 364 66 486 87 580 130 645 173 709 236 742 318 742Z"/>
<path transform="matrix(.010000001,0,0,-.010000001,27.231877,68.85164)" d="M107 124H210V0H107V124Z"/>
<path transform="matrix(.010000001,0,0,-.010000001,30.411877,68.85164)" d="M124 83H285V639L110 604V694L284 729H383V83H544V0H124V83Z"/>
<path transform="matrix(.010000001,0,0,-.010000001,36.771879,68.85164)" d="M378 643 129 254H378V643ZM352 729H476V254H580V172H476V0H378V172H49V267L352 729Z"/>
<g clip-path="url(#clip_33)">
<path transform="matrix(1,0,0,-1,0,279.02876)" stroke-width=".8" stroke-linecap="butt" stroke-dasharray=".8,1.32" stroke-linejoin="round" fill="none" stroke="#b0b0b0" stroke-opacity=".5" d="M50.1375 239.1783H777.2275"/>
</g>
<path transform="matrix(1,0,0,-1,0,279.02876)" d="M50.1375 239.1783H46.6375"/>
<path transform="matrix(1,0,0,-1,0,279.02876)" stroke-width=".8" stroke-linecap="butt" stroke-linejoin="round" fill="none" stroke="#000000" d="M50.1375 239.1783H46.6375"/>
<path transform="matrix(.010000001,0,0,-.010000001,20.871876,43.647325)" d="M318 664C267 664 229 639 203 589 177 539 165 464 165 364 165 264 177 189 203 139 229 89 267 64 318 64 369 64 407 89 433 139 458 189 471 264 471 364 471 464 458 539 433 589 407 639 369 664 318 664ZM318 742C399 742 461 709 505 645 548 580 570 486 570 364 570 241 548 147 505 83 461 19 399-13 317-13 235-13 173 19 130 83 87 147 66 241 66 364 66 486 87 580 130 645 173 709 236 742 318 742Z"/>
<path transform="matrix(.010000001,0,0,-.010000001,27.231877,43.647325)" d="M107 124H210V0H107V124Z"/>
<path transform="matrix(.010000001,0,0,-.010000001,30.411877,43.647325)" d="M124 83H285V639L110 604V694L284 729H383V83H544V0H124V83Z"/>
<path transform="matrix(.010000001,0,0,-.010000001,36.771879,43.647325)" d="M330 404C286 404 251 388 225 358 199 328 186 286 186 234 186 181 199 139 225 109 251 79 286 64 330 64 374 64 409 79 435 109 461 139 474 181 474 234 474 286 461 328 435 358 409 388 374 404 330 404ZM526 713V623C501 635 476 644 451 650 425 656 400 659 376 659 310 659 260 637 226 593 192 549 172 482 168 394 187 422 211 444 240 459 269 474 301 482 336 482 409 482 467 459 509 415 551 371 573 310 573 234 573 159 550 99 506 54 462 9 403-13 330-13 246-13 181 19 137 83 92 147 70 241 70 364 70 479 97 571 152 639 206 707 280 742 372 742 396 742 421 739 447 735 472 730 498 723 526 713Z"/>
<path transform="matrix(0,-.010000001,-.010000001,-0,14.79375,173.10031)" d="M197 648V374H321C367 374 402 385 427 409 452 433 465 467 465 511 465 555 452 588 427 612 402 636 367 648 321 648H197ZM98 729H321C402 729 464 710 506 673 548 636 569 582 569 511 569 439 548 384 506 348 464 311 402 293 321 293H197V0H98V729Z"/>
<path transform="matrix(0,-.010000001,-.010000001,-0,14.79375,167.24219)" d="M411 463C401 469 390 473 378 476 366 478 353 480 339 480 288 480 249 463 222 430 194 397 181 350 181 288V0H91V547H181V462C199 495 224 520 254 536 284 552 321 560 365 560 371 560 378 559 386 559 393 558 401 557 411 555V463Z"/>
<path transform="matrix(0,-.010000001,-.010000001,-0,14.79375,163.35094)" d="M306 484C258 484 220 465 192 427 164 389 150 338 150 273 150 207 163 156 191 118 219 80 257 62 306 62 354 62 392 80 420 118 448 156 462 207 462 273 462 337 448 389 420 427 392 465 354 484 306 484ZM306 560C384 560 445 534 490 484 534 433 557 363 557 273 557 183 534 113 490 63 445 12 384-13 306-13 227-13 165 12 121 63 77 113 55 183 55 273 55 363 77 433 121 484 165 534 227 560 306 560Z"/>
<path transform="matrix(0,-.010000001,-.010000001,-0,14.79375,157.23093)" d="M487 273C487 339 473 390 446 428 418 466 381 485 334 485 286 485 249 466 222 428 194 390 181 339 181 273 181 207 194 155 222 117 249 79 286 61 334 61 381 61 418 79 446 117 473 155 487 207 487 273ZM181 464C199 496 223 520 252 536 281 552 316 560 356 560 422 560 476 533 518 481 559 428 580 359 580 273 580 187 559 117 518 65 476 13 422-13 356-13 316-13 281-5 252 10 223 25 199 49 181 82V0H91V760H181V464Z"/>
<path transform="matrix(0,-.010000001,-.010000001,-0,14.79375,150.88094)" d="M343 275C270 275 220 266 192 250 164 233 150 205 150 165 150 133 160 107 181 89 202 70 231 61 267 61 317 61 357 78 387 114 417 149 432 196 432 255V275H343ZM522 312V0H432V83C411 49 385 25 355 10 325-5 287-13 243-13 187-13 142 2 109 33 76 64 60 106 60 159 60 220 80 266 122 298 163 329 224 345 306 345H432V354C432 395 418 427 391 450 364 472 326 484 277 484 245 484 215 480 185 472 155 464 127 453 100 439V522C132 534 164 544 195 550 226 556 256 560 286 560 365 560 424 539 463 498 502 457 522 395 522 312Z"/>
<path transform="matrix(0,-.010000001,-.010000001,-0,14.79375,144.75093)" d="M487 273C487 339 473 390 446 428 418 466 381 485 334 485 286 485 249 466 222 428 194 390 181 339 181 273 181 207 194 155 222 117 249 79 286 61 334 61 381 61 418 79 446 117 473 155 487 207 487 273ZM181 464C199 496 223 520 252 536 281 552 316 560 356 560 422 560 476 533 518 481 559 428 580 359 580 273 580 187 559 117 518 65 476 13 422-13 356-13 316-13 281-5 252 10 223 25 199 49 181 82V0H91V760H181V464Z"/>
<path transform="matrix(0,-.010000001,-.010000001,-0,14.79375,138.40094)" d="M94 547H184V0H94V547ZM94 760H184V646H94V760Z"/>
<path transform="matrix(0,-.010000001,-.010000001,-0,14.79375,135.62094)" d="M94 760H184V0H94V760Z"/>
<path transform="matrix(0,-.010000001,-.010000001,-0,14.79375,132.84095)" d="M94 547H184V0H94V547ZM94 760H184V646H94V760Z"/>
<path transform="matrix(0,-.010000001,-.010000001,-0,14.79375,130.06095)" d="M183 702V547H368V477H183V180C183 135 189 106 201 94 213 81 238 75 276 75H368V0H276C206 0 158 13 132 39 106 65 93 112 93 180V477H27V547H93V702H183Z"/>
<path transform="matrix(0,-.010000001,-.010000001,-0,14.79375,126.14094)" d="M322-50C296-114 271-157 247-177 223-197 191-207 151-207H79V-132H132C156-132 175-126 189-114 203-102 218-75 235-31L251 9 30 547H125L296 119 467 547H562L322-50Z"/>
<path transform="matrix(0,-.010000001,-.010000001,-0,14.79375,120.22094)" d=""/>
<path transform="matrix(0,-.010000001,-.010000001,-0,14.79375,117.04094)" d="M520 442C542 482 569 511 600 531 631 550 668 560 711 560 767 560 811 540 842 500 873 460 889 403 889 330V0H799V327C799 379 789 418 771 444 752 469 724 482 686 482 639 482 602 466 575 435 548 404 535 362 535 309V0H445V327C445 379 435 418 417 444 398 469 369 482 331 482 285 482 248 466 221 435 194 404 181 362 181 309V0H91V547H181V462C201 495 226 520 255 536 283 552 317 560 357 560 397 560 430 550 458 530 486 510 506 480 520 442Z"/>
<path transform="matrix(0,-.010000001,-.010000001,-0,14.79375,107.30094)" d="M343 275C270 275 220 266 192 250 164 233 150 205 150 165 150 133 160 107 181 89 202 70 231 61 267 61 317 61 357 78 387 114 417 149 432 196 432 255V275H343ZM522 312V0H432V83C411 49 385 25 355 10 325-5 287-13 243-13 187-13 142 2 109 33 76 64 60 106 60 159 60 220 80 266 122 298 163 329 224 345 306 345H432V354C432 395 418 427 391 450 364 472 326 484 277 484 245 484 215 480 185 472 155 464 127 453 100 439V522C132 534 164 544 195 550 226 556 256 560 286 560 365 560 424 539 463 498 502 457 522 395 522 312Z"/>
<path transform="matrix(0,-.010000001,-.010000001,-0,14.79375,101.170948)" d="M443 531V446C417 458 391 468 364 475 336 481 308 485 279 485 234 485 200 478 178 464 156 450 145 430 145 403 145 382 153 366 169 354 185 342 217 330 265 320L296 313C360 299 405 279 432 255 458 230 472 195 472 151 472 100 452 60 412 31 372 1 316-13 246-13 216-13 186-10 154-5 122 0 89 8 54 20V113C87 95 120 82 152 74 184 65 216 61 248 61 290 61 323 68 346 82 368 96 380 117 380 144 380 168 371 187 355 200 339 213 303 226 247 238L216 245C160 257 119 275 95 299 70 323 58 356 58 399 58 450 76 490 112 518 148 546 200 560 268 560 301 560 332 557 362 552 391 547 418 540 443 531Z"/>
<path transform="matrix(0,-.010000001,-.010000001,-0,14.79375,95.960948)" d="M443 531V446C417 458 391 468 364 475 336 481 308 485 279 485 234 485 200 478 178 464 156 450 145 430 145 403 145 382 153 366 169 354 185 342 217 330 265 320L296 313C360 299 405 279 432 255 458 230 472 195 472 151 472 100 452 60 412 31 372 1 316-13 246-13 216-13 186-10 154-5 122 0 89 8 54 20V113C87 95 120 82 152 74 184 65 216 61 248 61 290 61 323 68 346 82 368 96 380 117 380 144 380 168 371 187 355 200 339 213 303 226 247 238L216 245C160 257 119 275 95 299 70 323 58 356 58 399 58 450 76 490 112 518 148 546 200 560 268 560 301 560 332 557 362 552 391 547 418 540 443 531Z"/>
<path transform="matrix(1,0,0,-1,0,279.02876)" stroke-width=".8" stroke-linecap="square" stroke-miterlimit="10" stroke-linejoin="miter" fill="none" stroke="#000000" d="M50.1375 37.54375V256.70375"/>
<path transform="matrix(1,0,0,-1,0,279.02876)" stroke-width=".8" stroke-linecap="square" stroke-miterlimit="10" stroke-linejoin="miter" fill="none" stroke="#000000" d="M777.2275 37.54375V256.70375"/>
<path transform="matrix(1,0,0,-1,0,279.02876)" stroke-width=".8" stroke-linecap="square" stroke-miterlimit="10" stroke-linejoin="miter" fill="none" stroke="#000000" d="M50.1375 37.54375H777.2275"/>
<path transform="matrix(1,0,0,-1,0,279.02876)" stroke-width=".8" stroke-linecap="square" stroke-miterlimit="10" stroke-linejoin="miter" fill="none" stroke="#000000" d="M50.1375 256.70375H777.2275"/>
<path transform="matrix(.012,0,0,-.012,253.45594,16.325013)" d="M94 760H184V0H94V760Z"/>
<path transform="matrix(.012,0,0,-.012,256.79194,16.325013)" d="M306 484C258 484 220 465 192 427 164 389 150 338 150 273 150 207 163 156 191 118 219 80 257 62 306 62 354 62 392 80 420 118 448 156 462 207 462 273 462 337 448 389 420 427 392 465 354 484 306 484ZM306 560C384 560 445 534 490 484 534 433 557 363 557 273 557 183 534 113 490 63 445 12 384-13 306-13 227-13 165 12 121 63 77 113 55 183 55 273 55 363 77 433 121 484 165 534 227 560 306 560Z"/>
<path transform="matrix(.012,0,0,-.012,264.13594,16.325013)" d="M454 280C454 344 440 395 414 431 387 467 349 485 301 485 253 485 215 467 188 431 161 395 148 344 148 280 148 215 161 165 188 129 215 93 253 75 301 75 349 75 387 93 414 129 440 165 454 215 454 280ZM544 68C544-24 523-93 482-139 440-184 377-207 292-207 260-207 231-204 203-200 175-195 147-188 121-178V-91C147-105 173-115 199-122 225-129 251-133 278-133 336-133 380-117 410-87 439-56 454-10 454 52V96C435 64 411 40 382 24 353 8 319 0 279 0 211 0 157 25 116 76 75 127 55 195 55 280 55 364 75 432 116 483 157 534 211 560 279 560 319 560 353 552 382 536 411 520 435 496 454 464V547H544V68Z"/>
<path transform="matrix(.012,0,0,-.012,274.1454,16.325013)" d="M181 82V-207H91V547H181V464C199 496 223 520 252 536 281 552 316 560 356 560 422 560 476 533 518 481 559 428 580 359 580 273 580 187 559 117 518 65 476 13 422-13 356-13 316-13 281-5 252 10 223 25 199 49 181 82ZM487 273C487 339 473 390 446 428 418 466 381 485 334 485 286 485 249 466 222 428 194 390 181 339 181 273 181 207 194 155 222 117 249 79 286 61 334 61 381 61 418 79 446 117 473 155 487 207 487 273Z"/>
<path transform="matrix(.012,0,0,-.012,281.76539,16.325013)" d=""/>
<path transform="matrix(.012,0,0,-.012,285.5814,16.325013)" d="M454 464V760H544V0H454V82C435 49 411 25 382 10 353-5 319-13 279-13 213-13 159 13 117 65 75 117 55 187 55 273 55 359 75 428 117 481 159 533 213 560 279 560 319 560 353 552 382 536 411 520 435 496 454 464ZM148 273C148 207 161 155 188 117 215 79 252 61 300 61 348 61 385 79 413 117 440 155 454 207 454 273 454 339 440 390 413 428 385 466 348 485 300 485 252 485 215 466 188 428 161 390 148 339 148 273Z"/>
<path transform="matrix(.012,0,0,-.012,293.2014,16.325013)" d="M94 547H184V0H94V547ZM94 760H184V646H94V760Z"/>
<path transform="matrix(.012,0,0,-.012,296.53739,16.325013)" d="M443 531V446C417 458 391 468 364 475 336 481 308 485 279 485 234 485 200 478 178 464 156 450 145 430 145 403 145 382 153 366 169 354 185 342 217 330 265 320L296 313C360 299 405 279 432 255 458 230 472 195 472 151 472 100 452 60 412 31 372 1 316-13 246-13 216-13 186-10 154-5 122 0 89 8 54 20V113C87 95 120 82 152 74 184 65 216 61 248 61 290 61 323 68 346 82 368 96 380 117 380 144 380 168 371 187 355 200 339 213 303 226 247 238L216 245C160 257 119 275 95 299 70 323 58 356 58 399 58 450 76 490 112 518 148 546 200 560 268 560 301 560 332 557 362 552 391 547 418 540 443 531Z"/>
<path transform="matrix(.012,0,0,-.012,302.7894,16.325013)" d="M183 702V547H368V477H183V180C183 135 189 106 201 94 213 81 238 75 276 75H368V0H276C206 0 158 13 132 39 106 65 93 112 93 180V477H27V547H93V702H183Z"/>
<path transform="matrix(.012,0,0,-.012,307.4934,16.325013)" d="M411 463C401 469 390 473 378 476 366 478 353 480 339 480 288 480 249 463 222 430 194 397 181 350 181 288V0H91V547H181V462C199 495 224 520 254 536 284 552 321 560 365 560 371 560 378 559 386 559 393 558 401 557 411 555V463Z"/>
<path transform="matrix(.012,0,0,-.012,312.42539,16.325013)" d="M94 547H184V0H94V547ZM94 760H184V646H94V760Z"/>
<path transform="matrix(.012,0,0,-.012,315.76139,16.325013)" d="M487 273C487 339 473 390 446 428 418 466 381 485 334 485 286 485 249 466 222 428 194 390 181 339 181 273 181 207 194 155 222 117 249 79 286 61 334 61 381 61 418 79 446 117 473 155 487 207 487 273ZM181 464C199 496 223 520 252 536 281 552 316 560 356 560 422 560 476 533 518 481 559 428 580 359 580 273 580 187 559 117 518 65 476 13 422-13 356-13 316-13 281-5 252 10 223 25 199 49 181 82V0H91V760H181V464Z"/>
<path transform="matrix(.012,0,0,-.012,323.3814,16.325013)" d="M85 216V547H175V219C175 167 185 129 205 103 225 77 255 64 296 64 344 64 383 79 411 110 439 141 453 183 453 237V547H543V0H453V84C431 50 405 26 377 10 348-5 315-13 277-13 214-13 166 6 134 45 101 83 85 140 85 216ZM311 560V560Z"/>
<path transform="matrix(.012,0,0,-.012,330.98939,16.325013)" d="M183 702V547H368V477H183V180C183 135 189 106 201 94 213 81 238 75 276 75H368V0H276C206 0 158 13 132 39 106 65 93 112 93 180V477H27V547H93V702H183Z"/>
<path transform="matrix(.012,0,0,-.012,335.6934,16.325013)" d="M94 547H184V0H94V547ZM94 760H184V646H94V760Z"/>
<path transform="matrix(.012,0,0,-.012,339.0294,16.325013)" d="M306 484C258 484 220 465 192 427 164 389 150 338 150 273 150 207 163 156 191 118 219 80 257 62 306 62 354 62 392 80 420 118 448 156 462 207 462 273 462 337 448 389 420 427 392 465 354 484 306 484ZM306 560C384 560 445 534 490 484 534 433 557 363 557 273 557 183 534 113 490 63 445 12 384-13 306-13 227-13 165 12 121 63 77 113 55 183 55 273 55 363 77 433 121 484 165 534 227 560 306 560Z"/>
<path transform="matrix(.012,0,0,-.012,346.3734,16.325013)" d="M549 330V0H459V327C459 379 448 417 428 443 408 469 378 482 338 482 289 482 251 466 223 435 195 404 181 362 181 309V0H91V547H181V462C202 494 227 519 257 535 286 551 320 560 358 560 420 560 468 540 500 501 532 462 549 405 549 330Z"/>
<path transform="matrix(.012,0,0,-.012,353.98139,16.325013)" d=""/>
<path transform="matrix(.012,0,0,-.012,357.7974,16.325013)" d="M42 547H132L244 120 356 547H462L574 120 686 547H776L633 0H527L409 448 291 0H185L42 547Z"/>
<path transform="matrix(.012,0,0,-.012,367.6134,16.325013)" d="M94 547H184V0H94V547ZM94 760H184V646H94V760Z"/>
<path transform="matrix(.012,0,0,-.012,370.9494,16.325013)" d="M183 702V547H368V477H183V180C183 135 189 106 201 94 213 81 238 75 276 75H368V0H276C206 0 158 13 132 39 106 65 93 112 93 180V477H27V547H93V702H183Z"/>
<path transform="matrix(.012,0,0,-.012,375.65339,16.325013)" d="M549 330V0H459V327C459 379 448 417 428 443 408 469 378 482 338 482 289 482 251 466 223 435 195 404 181 362 181 309V0H91V760H181V462C202 494 227 519 257 535 286 551 320 560 358 560 420 560 468 540 500 501 532 462 549 405 549 330Z"/>
<path transform="matrix(.012,0,0,-.012,383.2614,16.325013)" d=""/>
<path transform="matrix(.012,0,0,-.012,387.0774,16.325013)" d="M124 83H285V639L110 604V694L284 729H383V83H544V0H124V83Z"/>
<path transform="matrix(.012,0,0,-.012,394.7094,16.325013)" d="M318 664C267 664 229 639 203 589 177 539 165 464 165 364 165 264 177 189 203 139 229 89 267 64 318 64 369 64 407 89 433 139 458 189 471 264 471 364 471 464 458 539 433 589 407 639 369 664 318 664ZM318 742C399 742 461 709 505 645 548 580 570 486 570 364 570 241 548 147 505 83 461 19 399-13 317-13 235-13 173 19 130 83 87 147 66 241 66 364 66 486 87 580 130 645 173 709 236 742 318 742Z"/>
<path transform="matrix(.012,0,0,-.012,404.7157,16.325013)" d="M727 321C699 321 676 309 660 285 644 261 636 227 636 184 636 142 644 108 660 84 676 60 699 48 727 48 755 48 777 60 793 84 809 108 817 142 817 184 817 226 809 260 793 284 777 308 755 321 727 321ZM727 383C778 383 819 365 849 329 879 293 895 244 895 184 895 123 879 75 849 40 819 4 778-13 727-13 675-13 633 4 603 40 573 75 558 123 558 184 558 245 573 293 603 329 633 365 675 383 727 383ZM223 680C195 680 173 667 157 643 141 619 133 586 133 544 133 500 141 467 157 443 173 419 195 407 223 407 251 407 274 419 290 443 306 467 314 500 314 544 314 586 305 619 289 643 273 667 251 680 223 680ZM664 742H742L286-13H208L664 742ZM223 742C274 742 315 724 346 688 376 652 392 604 392 544 392 482 376 434 346 398 316 362 275 345 223 345 171 345 130 362 100 398 70 434 55 482 55 544 55 604 70 652 100 688 130 724 171 742 223 742Z"/>
<path transform="matrix(.012,0,0,-.012,416.1157,16.325013)" d=""/>
<path transform="matrix(.012,0,0,-.012,419.9317,16.325013)" d="M94 760H184V0H94V760Z"/>
<path transform="matrix(.012,0,0,-.012,423.2677,16.325013)" d="M306 484C258 484 220 465 192 427 164 389 150 338 150 273 150 207 163 156 191 118 219 80 257 62 306 62 354 62 392 80 420 118 448 156 462 207 462 273 462 337 448 389 420 427 392 465 354 484 306 484ZM306 560C384 560 445 534 490 484 534 433 557 363 557 273 557 183 534 113 490 63 445 12 384-13 306-13 227-13 165 12 121 63 77 113 55 183 55 273 55 363 77 433 121 484 165 534 227 560 306 560Z"/>
<path transform="matrix(.012,0,0,-.012,430.6117,16.325013)" d="M42 547H132L244 120 356 547H462L574 120 686 547H776L633 0H527L409 448 291 0H185L42 547Z"/>
<path transform="matrix(.012,0,0,-.012,440.42768,16.325013)" d=""/>
<path transform="matrix(.012,0,0,-.012,444.24366,16.325013)" d="M243 392C213 366 192 339 178 313 164 287 157 259 157 231 157 183 174 144 209 112 243 80 287 65 339 65 369 65 398 70 425 80 452 90 478 106 502 127L243 392ZM312 447 560 193C579 221 594 252 605 285 615 318 622 353 624 391H715C711 348 700 306 683 264 666 222 643 180 613 139L749 0H626L556 72C522 42 486 21 449 7 412-6 372-13 330-13 251-13 187 9 137 53 87 97 63 155 63 225 63 267 73 306 95 342 117 378 150 413 194 446 178 466 166 487 158 507 150 527 146 547 146 567 146 619 164 662 200 694 236 726 284 742 344 742 371 742 398 739 425 733 451 727 479 719 507 707V618C478 633 451 645 425 653 399 661 376 665 354 665 320 665 292 656 271 638 249 620 239 596 239 568 239 551 243 534 253 518 263 501 282 477 312 447Z"/>
<path transform="matrix(.012,0,0,-.012,453.60368,16.325013)" d=""/>
<path transform="matrix(.012,0,0,-.012,457.41969,16.325013)" d="M549 330V0H459V327C459 379 448 417 428 443 408 469 378 482 338 482 289 482 251 466 223 435 195 404 181 362 181 309V0H91V760H181V462C202 494 227 519 257 535 286 551 320 560 358 560 420 560 468 540 500 501 532 462 549 405 549 330Z"/>
<path transform="matrix(.012,0,0,-.012,465.02766,16.325013)" d="M94 547H184V0H94V547ZM94 760H184V646H94V760Z"/>
<path transform="matrix(.012,0,0,-.012,468.36366,16.325013)" d="M454 280C454 344 440 395 414 431 387 467 349 485 301 485 253 485 215 467 188 431 161 395 148 344 148 280 148 215 161 165 188 129 215 93 253 75 301 75 349 75 387 93 414 129 440 165 454 215 454 280ZM544 68C544-24 523-93 482-139 440-184 377-207 292-207 260-207 231-204 203-200 175-195 147-188 121-178V-91C147-105 173-115 199-122 225-129 251-133 278-133 336-133 380-117 410-87 439-56 454-10 454 52V96C435 64 411 40 382 24 353 8 319 0 279 0 211 0 157 25 116 76 75 127 55 195 55 280 55 364 75 432 116 483 157 534 211 560 279 560 319 560 353 552 382 536 411 520 435 496 454 464V547H544V68Z"/>
<path transform="matrix(.012,0,0,-.012,475.98365,16.325013)" d="M549 330V0H459V327C459 379 448 417 428 443 408 469 378 482 338 482 289 482 251 466 223 435 195 404 181 362 181 309V0H91V760H181V462C202 494 227 519 257 535 286 551 320 560 358 560 420 560 468 540 500 501 532 462 549 405 549 330Z"/>
<path transform="matrix(.012,0,0,-.012,483.59169,16.325013)" d=""/>
<path transform="matrix(.012,0,0,-.012,487.40766,16.325013)" d="M183 702V547H368V477H183V180C183 135 189 106 201 94 213 81 238 75 276 75H368V0H276C206 0 158 13 132 39 106 65 93 112 93 180V477H27V547H93V702H183Z"/>
<path transform="matrix(.012,0,0,-.012,492.11164,16.325013)" d="M343 275C270 275 220 266 192 250 164 233 150 205 150 165 150 133 160 107 181 89 202 70 231 61 267 61 317 61 357 78 387 114 417 149 432 196 432 255V275H343ZM522 312V0H432V83C411 49 385 25 355 10 325-5 287-13 243-13 187-13 142 2 109 33 76 64 60 106 60 159 60 220 80 266 122 298 163 329 224 345 306 345H432V354C432 395 418 427 391 450 364 472 326 484 277 484 245 484 215 480 185 472 155 464 127 453 100 439V522C132 534 164 544 195 550 226 556 256 560 286 560 365 560 424 539 463 498 502 457 522 395 522 312Z"/>
<path transform="matrix(.012,0,0,-.012,499.46766,16.325013)" d="M94 547H184V0H94V547ZM94 760H184V646H94V760Z"/>
<path transform="matrix(.012,0,0,-.012,502.80366,16.325013)" d="M94 760H184V0H94V760Z"/>
<path transform="matrix(.012,0,0,-.012,506.13966,16.325013)" d="M443 531V446C417 458 391 468 364 475 336 481 308 485 279 485 234 485 200 478 178 464 156 450 145 430 145 403 145 382 153 366 169 354 185 342 217 330 265 320L296 313C360 299 405 279 432 255 458 230 472 195 472 151 472 100 452 60 412 31 372 1 316-13 246-13 216-13 186-10 154-5 122 0 89 8 54 20V113C87 95 120 82 152 74 184 65 216 61 248 61 290 61 323 68 346 82 368 96 380 117 380 144 380 168 371 187 355 200 339 213 303 226 247 238L216 245C160 257 119 275 95 299 70 323 58 356 58 399 58 450 76 490 112 518 148 546 200 560 268 560 301 560 332 557 362 552 391 547 418 540 443 531Z"/>
<path transform="matrix(.012,0,0,-.012,512.39169,16.325013)" d=""/>
<path transform="matrix(.012,0,0,-.012,516.20767,16.325013)" d="M549 330V0H459V327C459 379 448 417 428 443 408 469 378 482 338 482 289 482 251 466 223 435 195 404 181 362 181 309V0H91V760H181V462C202 494 227 519 257 535 286 551 320 560 358 560 420 560 468 540 500 501 532 462 549 405 549 330Z"/>
<path transform="matrix(.012,0,0,-.012,523.8157,16.325013)" d="M94 547H184V0H94V547ZM94 760H184V646H94V760Z"/>
<path transform="matrix(.012,0,0,-.012,527.1517,16.325013)" d="M454 280C454 344 440 395 414 431 387 467 349 485 301 485 253 485 215 467 188 431 161 395 148 344 148 280 148 215 161 165 188 129 215 93 253 75 301 75 349 75 387 93 414 129 440 165 454 215 454 280ZM544 68C544-24 523-93 482-139 440-184 377-207 292-207 260-207 231-204 203-200 175-195 147-188 121-178V-91C147-105 173-115 199-122 225-129 251-133 278-133 336-133 380-117 410-87 439-56 454-10 454 52V96C435 64 411 40 382 24 353 8 319 0 279 0 211 0 157 25 116 76 75 127 55 195 55 280 55 364 75 432 116 483 157 534 211 560 279 560 319 560 353 552 382 536 411 520 435 496 454 464V547H544V68Z"/>
<path transform="matrix(.012,0,0,-.012,534.77169,16.325013)" d="M549 330V0H459V327C459 379 448 417 428 443 408 469 378 482 338 482 289 482 251 466 223 435 195 404 181 362 181 309V0H91V760H181V462C202 494 227 519 257 535 286 551 320 560 358 560 420 560 468 540 500 501 532 462 549 405 549 330Z"/>
<path transform="matrix(.012,0,0,-.012,542.37966,16.325013)" d="M94 760H184V0H94V760Z"/>
<path transform="matrix(.012,0,0,-.012,545.7157,16.325013)" d="M94 547H184V0H94V547ZM94 760H184V646H94V760Z"/>
<path transform="matrix(.012,0,0,-.012,549.05166,16.325013)" d="M454 280C454 344 440 395 414 431 387 467 349 485 301 485 253 485 215 467 188 431 161 395 148 344 148 280 148 215 161 165 188 129 215 93 253 75 301 75 349 75 387 93 414 129 440 165 454 215 454 280ZM544 68C544-24 523-93 482-139 440-184 377-207 292-207 260-207 231-204 203-200 175-195 147-188 121-178V-91C147-105 173-115 199-122 225-129 251-133 278-133 336-133 380-117 410-87 439-56 454-10 454 52V96C435 64 411 40 382 24 353 8 319 0 279 0 211 0 157 25 116 76 75 127 55 195 55 280 55 364 75 432 116 483 157 534 211 560 279 560 319 560 353 552 382 536 411 520 435 496 454 464V547H544V68Z"/>
<path transform="matrix(.012,0,0,-.012,556.67166,16.325013)" d="M549 330V0H459V327C459 379 448 417 428 443 408 469 378 482 338 482 289 482 251 466 223 435 195 404 181 362 181 309V0H91V760H181V462C202 494 227 519 257 535 286 551 320 560 358 560 420 560 468 540 500 501 532 462 549 405 549 330Z"/>
<path transform="matrix(.012,0,0,-.012,564.27969,16.325013)" d="M183 702V547H368V477H183V180C183 135 189 106 201 94 213 81 238 75 276 75H368V0H276C206 0 158 13 132 39 106 65 93 112 93 180V477H27V547H93V702H183Z"/>
<path transform="matrix(.012,0,0,-.012,568.98367,16.325013)" d="M562 296V252H149C153 190 171 142 205 110 238 78 284 62 344 62 378 62 412 66 444 74 476 82 509 95 541 113V28C509 14 476 3 442-3 408-9 373-13 339-13 251-13 182 12 131 62 80 112 55 181 55 268 55 357 79 428 127 481 175 533 241 560 323 560 397 560 455 536 498 489 540 441 562 377 562 296ZM472 322C471 371 457 410 431 440 404 469 368 484 324 484 274 484 234 469 204 441 174 413 156 373 152 322H472Z"/>
<path transform="matrix(.012,0,0,-.012,576.36367,16.325013)" d="M454 464V760H544V0H454V82C435 49 411 25 382 10 353-5 319-13 279-13 213-13 159 13 117 65 75 117 55 187 55 273 55 359 75 428 117 481 159 533 213 560 279 560 319 560 353 552 382 536 411 520 435 496 454 464ZM148 273C148 207 161 155 188 117 215 79 252 61 300 61 348 61 385 79 413 117 440 155 454 207 454 273 454 339 440 390 413 428 385 466 348 485 300 485 252 485 215 466 188 428 161 390 148 339 148 273Z"/>
<g clip-path="url(#clip_34)">
<path transform="matrix(.012,0,0,-.012,243.40125,16.325013)" d="M106 355H732V272H106V355Z"/>
</g>
<g clip-path="url(#clip_35)">
<path transform="matrix(.012,0,0,-.012,271.7489,16.325013)" d=""/>
</g>
<g clip-path="url(#clip_36)">
<path transform="matrix(.012,0,0,-.012,402.3192,16.325013)" d=""/>
</g>
<g>
<path transform="matrix(1,0,0,-1,0,279.02876)" d="M648.29 219.36H770.2275C771.56088 219.36 772.2275 220.02667 772.2275 221.36V249.70375C772.2275 251.03708 771.56088 251.70375 770.2275 251.70375H648.29C646.95669 251.70375 646.29 251.03708 646.29 249.70375V221.36C646.29 220.02667 646.95669 219.36 648.29 219.36Z" fill="#ffffff" fill-opacity=".8"/>
<path transform="matrix(1,0,0,-1,0,279.02876)" stroke-width="1" stroke-linecap="butt" stroke-miterlimit="10" stroke-linejoin="miter" fill="none" stroke="#cccccc" stroke-opacity=".8" d="M648.29 219.36H770.2275C771.56088 219.36 772.2275 220.02667 772.2275 221.36V249.70375C772.2275 251.03708 771.56088 251.70375 770.2275 251.70375H648.29C646.95669 251.70375 646.29 251.03708 646.29 249.70375V221.36C646.29 220.02667 646.95669 219.36 648.29 219.36Z"/>
</g>
<path transform="matrix(1,0,0,-1,0,279.02876)" d="M650.29 240.11H670.29V247.11H650.29Z" fill="#4682b4"/>
<path transform="matrix(1,0,0,-1,0,279.02876)" stroke-width="1" stroke-linecap="butt" stroke-miterlimit="10" stroke-linejoin="miter" fill="none" stroke="#000000" d="M650.29 240.11H670.29V247.11H650.29Z"/>
<path transform="matrix(.010000001,0,0,-.010000001,678.29,38.918748)" d="M343 275C270 275 220 266 192 250 164 233 150 205 150 165 150 133 160 107 181 89 202 70 231 61 267 61 317 61 357 78 387 114 417 149 432 196 432 255V275H343ZM522 312V0H432V83C411 49 385 25 355 10 325-5 287-13 243-13 187-13 142 2 109 33 76 64 60 106 60 159 60 220 80 266 122 298 163 329 224 345 306 345H432V354C432 395 418 427 391 450 364 472 326 484 277 484 245 484 215 480 185 472 155 464 127 453 100 439V522C132 534 164 544 195 550 226 556 256 560 286 560 365 560 424 539 463 498 502 457 522 395 522 312Z"/>
<path transform="matrix(.010000001,0,0,-.010000001,684.42,38.918748)" d="M454 464V760H544V0H454V82C435 49 411 25 382 10 353-5 319-13 279-13 213-13 159 13 117 65 75 117 55 187 55 273 55 359 75 428 117 481 159 533 213 560 279 560 319 560 353 552 382 536 411 520 435 496 454 464ZM148 273C148 207 161 155 188 117 215 79 252 61 300 61 348 61 385 79 413 117 440 155 454 207 454 273 454 339 440 390 413 428 385 466 348 485 300 485 252 485 215 466 188 428 161 390 148 339 148 273Z"/>
<path transform="matrix(.010000001,0,0,-.010000001,690.76998,38.918748)" d="M454 464V760H544V0H454V82C435 49 411 25 382 10 353-5 319-13 279-13 213-13 159 13 117 65 75 117 55 187 55 273 55 359 75 428 117 481 159 533 213 560 279 560 319 560 353 552 382 536 411 520 435 496 454 464ZM148 273C148 207 161 155 188 117 215 79 252 61 300 61 348 61 385 79 413 117 440 155 454 207 454 273 454 339 440 390 413 428 385 466 348 485 300 485 252 485 215 466 188 428 161 390 148 339 148 273Z"/>
<path transform="matrix(.010000001,0,0,-.010000001,697.12,38.918748)" d=""/>
<path transform="matrix(.010000001,0,0,-.010000001,700.3,38.918748)" d="M183 702V547H368V477H183V180C183 135 189 106 201 94 213 81 238 75 276 75H368V0H276C206 0 158 13 132 39 106 65 93 112 93 180V477H27V547H93V702H183Z"/>
<path transform="matrix(.010000001,0,0,-.010000001,704.22,38.918748)" d="M306 484C258 484 220 465 192 427 164 389 150 338 150 273 150 207 163 156 191 118 219 80 257 62 306 62 354 62 392 80 420 118 448 156 462 207 462 273 462 337 448 389 420 427 392 465 354 484 306 484ZM306 560C384 560 445 534 490 484 534 433 557 363 557 273 557 183 534 113 490 63 445 12 384-13 306-13 227-13 165 12 121 63 77 113 55 183 55 273 55 363 77 433 121 484 165 534 227 560 306 560Z"/>
<path transform="matrix(.010000001,0,0,-.010000001,710.33999,38.918748)" d=""/>
<path transform="matrix(.010000001,0,0,-.010000001,713.51998,38.918748)" d="M183 702V547H368V477H183V180C183 135 189 106 201 94 213 81 238 75 276 75H368V0H276C206 0 158 13 132 39 106 65 93 112 93 180V477H27V547H93V702H183Z"/>
<path transform="matrix(.010000001,0,0,-.010000001,717.44,38.918748)" d="M411 463C401 469 390 473 378 476 366 478 353 480 339 480 288 480 249 463 222 430 194 397 181 350 181 288V0H91V547H181V462C199 495 224 520 254 536 284 552 321 560 365 560 371 560 378 559 386 559 393 558 401 557 411 555V463Z"/>
<path transform="matrix(.010000001,0,0,-.010000001,721.55,38.918748)" d="M343 275C270 275 220 266 192 250 164 233 150 205 150 165 150 133 160 107 181 89 202 70 231 61 267 61 317 61 357 78 387 114 417 149 432 196 432 255V275H343ZM522 312V0H432V83C411 49 385 25 355 10 325-5 287-13 243-13 187-13 142 2 109 33 76 64 60 106 60 159 60 220 80 266 122 298 163 329 224 345 306 345H432V354C432 395 418 427 391 450 364 472 326 484 277 484 245 484 215 480 185 472 155 464 127 453 100 439V522C132 534 164 544 195 550 226 556 256 560 286 560 365 560 424 539 463 498 502 457 522 395 522 312Z"/>
<path transform="matrix(.010000001,0,0,-.010000001,727.68,38.918748)" d="M94 547H184V0H94V547ZM94 760H184V646H94V760Z"/>
<path transform="matrix(.010000001,0,0,-.010000001,730.45999,38.918748)" d="M549 330V0H459V327C459 379 448 417 428 443 408 469 378 482 338 482 289 482 251 466 223 435 195 404 181 362 181 309V0H91V547H181V462C202 494 227 519 257 535 286 551 320 560 358 560 420 560 468 540 500 501 532 462 549 405 549 330Z"/>
<path transform="matrix(.010000001,0,0,-.010000001,736.8,38.918748)" d=""/>
<path transform="matrix(.010000001,0,0,-.010000001,739.98,38.918748)" d="M487 273C487 339 473 390 446 428 418 466 381 485 334 485 286 485 249 466 222 428 194 390 181 339 181 273 181 207 194 155 222 117 249 79 286 61 334 61 381 61 418 79 446 117 473 155 487 207 487 273ZM181 464C199 496 223 520 252 536 281 552 316 560 356 560 422 560 476 533 518 481 559 428 580 359 580 273 580 187 559 117 518 65 476 13 422-13 356-13 316-13 281-5 252 10 223 25 199 49 181 82V0H91V760H181V464Z"/>
<path transform="matrix(.010000001,0,0,-.010000001,746.32998,38.918748)" d="M343 275C270 275 220 266 192 250 164 233 150 205 150 165 150 133 160 107 181 89 202 70 231 61 267 61 317 61 357 78 387 114 417 149 432 196 432 255V275H343ZM522 312V0H432V83C411 49 385 25 355 10 325-5 287-13 243-13 187-13 142 2 109 33 76 64 60 106 60 159 60 220 80 266 122 298 163 329 224 345 306 345H432V354C432 395 418 427 391 450 364 472 326 484 277 484 245 484 215 480 185 472 155 464 127 453 100 439V522C132 534 164 544 195 550 226 556 256 560 286 560 365 560 424 539 463 498 502 457 522 395 522 312Z"/>
<path transform="matrix(.010000001,0,0,-.010000001,752.45999,38.918748)" d="M183 702V547H368V477H183V180C183 135 189 106 201 94 213 81 238 75 276 75H368V0H276C206 0 158 13 132 39 106 65 93 112 93 180V477H27V547H93V702H183Z"/>
<path transform="matrix(.010000001,0,0,-.010000001,756.38,38.918748)" d="M488 526V442C462 456 437 466 411 473 385 480 360 484 334 484 276 484 230 465 198 428 166 391 150 339 150 273 150 206 166 154 198 117 230 80 276 62 334 62 360 62 385 65 411 72 437 79 462 90 488 104V21C462 9 436 0 410-5 383-10 354-13 324-13 242-13 176 12 128 64 79 115 55 185 55 273 55 362 79 432 128 483 177 534 244 560 330 560 358 560 385 557 411 551 437 545 463 537 488 526Z"/>
<path transform="matrix(.010000001,0,0,-.010000001,761.88,38.918748)" d="M549 330V0H459V327C459 379 448 417 428 443 408 469 378 482 338 482 289 482 251 466 223 435 195 404 181 362 181 309V0H91V760H181V462C202 494 227 519 257 535 286 551 320 560 358 560 420 560 468 540 500 501 532 462 549 405 549 330Z"/>
<path transform="matrix(1,0,0,-1,0,279.02876)" d="M650.29 225.43813H670.29V232.43813H650.29Z" fill="#dc143c"/>
<path transform="matrix(1,0,0,-1,0,279.02876)" stroke-width="1" stroke-linecap="butt" stroke-miterlimit="10" stroke-linejoin="miter" fill="none" stroke="#000000" d="M650.29 225.43813H670.29V232.43813H650.29Z"/>
<path transform="matrix(.010000001,0,0,-.010000001,678.29,53.590623)" d="M371 760V685H285C253 685 230 678 218 665 205 652 199 629 199 595V547H347V477H199V0H109V477H23V547H109V585C109 645 123 690 151 718 179 746 224 760 286 760H371Z"/>
<path transform="matrix(.010000001,0,0,-.010000001,681.81,53.590623)" d="M94 547H184V0H94V547ZM94 760H184V646H94V760Z"/>
<path transform="matrix(.010000001,0,0,-.010000001,684.58999,53.590623)" d="M94 760H184V0H94V760Z"/>
<path transform="matrix(.010000001,0,0,-.010000001,687.37,53.590623)" d="M183 702V547H368V477H183V180C183 135 189 106 201 94 213 81 238 75 276 75H368V0H276C206 0 158 13 132 39 106 65 93 112 93 180V477H27V547H93V702H183Z"/>
<path transform="matrix(.010000001,0,0,-.010000001,691.29,53.590623)" d="M562 296V252H149C153 190 171 142 205 110 238 78 284 62 344 62 378 62 412 66 444 74 476 82 509 95 541 113V28C509 14 476 3 442-3 408-9 373-13 339-13 251-13 182 12 131 62 80 112 55 181 55 268 55 357 79 428 127 481 175 533 241 560 323 560 397 560 455 536 498 489 540 441 562 377 562 296ZM472 322C471 371 457 410 431 440 404 469 368 484 324 484 274 484 234 469 204 441 174 413 156 373 152 322H472Z"/>
<path transform="matrix(.010000001,0,0,-.010000001,697.44,53.590623)" d="M411 463C401 469 390 473 378 476 366 478 353 480 339 480 288 480 249 463 222 430 194 397 181 350 181 288V0H91V547H181V462C199 495 224 520 254 536 284 552 321 560 365 560 371 560 378 559 386 559 393 558 401 557 411 555V463Z"/>
<path transform="matrix(.010000001,0,0,-.010000001,701.33126,53.590623)" d="M562 296V252H149C153 190 171 142 205 110 238 78 284 62 344 62 378 62 412 66 444 74 476 82 509 95 541 113V28C509 14 476 3 442-3 408-9 373-13 339-13 251-13 182 12 131 62 80 112 55 181 55 268 55 357 79 428 127 481 175 533 241 560 323 560 397 560 455 536 498 489 540 441 562 377 562 296ZM472 322C471 371 457 410 431 440 404 469 368 484 324 484 274 484 234 469 204 441 174 413 156 373 152 322H472Z"/>
<path transform="matrix(.010000001,0,0,-.010000001,707.4812,53.590623)" d="M454 464V760H544V0H454V82C435 49 411 25 382 10 353-5 319-13 279-13 213-13 159 13 117 65 75 117 55 187 55 273 55 359 75 428 117 481 159 533 213 560 279 560 319 560 353 552 382 536 411 520 435 496 454 464ZM148 273C148 207 161 155 188 117 215 79 252 61 300 61 348 61 385 79 413 117 440 155 454 207 454 273 454 339 440 390 413 428 385 466 348 485 300 485 252 485 215 466 188 428 161 390 148 339 148 273Z"/>
</svg>
